{
	"asset":{
		"generator":"Khronos glTF Blender I/O v4.2.57",
		"version":"2.0"
	},
	"scene":0,
	"scenes":[
		{
			"name":"Scene",
			"nodes":[
				0
			]
		}
	],
	"nodes":[
		{
			"mesh":0,
			"name":"stool1",
			"scale":[
				0.07969452440738678,
				0.132061168551445,
				0.0711166113615036
			],
			"translation":[
				1.2499175071716309,
				0.18886665999889374,
				0.8142589330673218
			]
		}
	],
	"materials":[
		{
			"doubleSided":true,
			"name":"Material.069",
			"pbrMetallicRoughness":{
				"baseColorFactor":[
					0.32120782136917114,
					0.15298664569854736,
					0.07283125817775726,
					1
				],
				"metallicFactor":0,
				"roughnessFactor":0.5
			}
		}
	],
	"meshes":[
		{
			"name":"Cube.006",
			"primitives":[
				{
					"attributes":{
						"POSITION":0,
						"NORMAL":1,
						"TEXCOORD_0":2
					},
					"indices":3,
					"material":0
				}
			]
		}
	],
	"accessors":[
		{
			"bufferView":0,
			"componentType":5126,
			"count":68,
			"max":[
				1,
				0.9928575754165649,
				1
			],
			"min":[
				-1.1361128091812134,
				-1,
				-1
			],
			"type":"VEC3"
		},
		{
			"bufferView":1,
			"componentType":5126,
			"count":68,
			"type":"VEC3"
		},
		{
			"bufferView":2,
			"componentType":5126,
			"count":68,
			"type":"VEC2"
		},
		{
			"bufferView":3,
			"componentType":5123,
			"count":108,
			"type":"SCALAR"
		}
	],
	"bufferViews":[
		{
			"buffer":0,
			"byteLength":816,
			"byteOffset":0,
			"target":34962
		},
		{
			"buffer":0,
			"byteLength":816,
			"byteOffset":816,
			"target":34962
		},
		{
			"buffer":0,
			"byteLength":544,
			"byteOffset":1632,
			"target":34962
		},
		{
			"buffer":0,
			"byteLength":216,
			"byteOffset":2176,
			"target":34963
		}
	],
	"buffers":[
		{
			"byteLength":2392,
			"uri":"stool1.bin"
		}
	]
}
