{
	"asset":{
		"generator":"Khronos glTF Blender I/O v4.2.57",
		"version":"2.0"
	},
	"extensionsUsed":[
		"KHR_materials_clearcoat"
	],
	"scene":0,
	"scenes":[
		{
			"name":"Scene",
			"nodes":[
				0
			]
		}
	],
	"nodes":[
		{
			"mesh":0,
			"name":"2table2",
			"rotation":[
				0,
				0.8434842228889465,
				0,
				0.5371541380882263
			],
			"scale":[
				0.05778531730175018,
				0.057785309851169586,
				0.05778531730175018
			],
			"translation":[
				-0.19111037254333496,
				0.2820032835006714,
				1.698352336883545
			]
		}
	],
	"materials":[
		{
			"alphaMode":"BLEND",
			"doubleSided":true,
			"extensions":{
				"KHR_materials_clearcoat":{
					"clearcoatFactor":0.26923808455467224,
					"clearcoatRoughnessFactor":0.07467223703861237
				}
			},
			"name":"vase1.003",
			"normalTexture":{
				"index":0
			},
			"pbrMetallicRoughness":{
				"baseColorTexture":{
					"index":1
				},
				"metallicRoughnessTexture":{
					"index":2
				}
			}
		},
		{
			"alphaMode":"BLEND",
			"doubleSided":true,
			"emissiveFactor":[
				1,
				1,
				1
			],
			"emissiveTexture":{
				"index":3
			},
			"name":"flower1.003",
			"normalTexture":{
				"index":4
			},
			"pbrMetallicRoughness":{
				"baseColorTexture":{
					"index":5
				},
				"metallicFactor":0,
				"metallicRoughnessTexture":{
					"index":6
				}
			}
		},
		{
			"alphaMode":"BLEND",
			"doubleSided":true,
			"name":"glass.003",
			"normalTexture":{
				"index":7
			},
			"pbrMetallicRoughness":{
				"baseColorTexture":{
					"index":8
				},
				"metallicRoughnessTexture":{
					"index":9
				}
			}
		},
		{
			"doubleSided":true,
			"name":"Material.100",
			"pbrMetallicRoughness":{
				"baseColorFactor":[
					0.4451987147331238,
					0.208637073636055,
					0.06662602722644806,
					1
				],
				"metallicFactor":0,
				"roughnessFactor":0.5
			}
		},
		{
			"doubleSided":true,
			"name":"Material.078",
			"pbrMetallicRoughness":{
				"baseColorFactor":[
					0,
					0,
					0,
					1
				],
				"metallicFactor":0,
				"roughnessFactor":0.5
			}
		},
		{
			"doubleSided":true,
			"name":"Material.076",
			"pbrMetallicRoughness":{
				"baseColorFactor":[
					0.177887424826622,
					0.08021991699934006,
					0.035601355135440826,
					1
				],
				"metallicFactor":0,
				"roughnessFactor":0.5
			}
		}
	],
	"meshes":[
		{
			"name":"defaultMaterial.009",
			"primitives":[
				{
					"attributes":{
						"POSITION":0,
						"NORMAL":1,
						"TEXCOORD_0":2
					},
					"indices":3,
					"material":0
				},
				{
					"attributes":{
						"POSITION":4,
						"NORMAL":5,
						"TEXCOORD_0":6
					},
					"indices":7,
					"material":1
				},
				{
					"attributes":{
						"POSITION":8,
						"NORMAL":9,
						"TEXCOORD_0":10
					},
					"indices":11,
					"material":2
				},
				{
					"attributes":{
						"POSITION":12,
						"NORMAL":13,
						"TEXCOORD_0":14
					},
					"indices":15,
					"material":3
				},
				{
					"attributes":{
						"POSITION":16,
						"NORMAL":17,
						"TEXCOORD_0":18
					},
					"indices":19,
					"material":4
				},
				{
					"attributes":{
						"POSITION":20,
						"NORMAL":21,
						"TEXCOORD_0":22
					},
					"indices":23,
					"material":5
				}
			]
		}
	],
	"textures":[
		{
			"sampler":0,
			"source":0
		},
		{
			"sampler":0,
			"source":1
		},
		{
			"sampler":0,
			"source":2
		},
		{
			"sampler":0,
			"source":3
		},
		{
			"sampler":0,
			"source":4
		},
		{
			"sampler":0,
			"source":5
		},
		{
			"sampler":0,
			"source":6
		},
		{
			"sampler":0,
			"source":7
		},
		{
			"sampler":0,
			"source":8
		},
		{
			"sampler":0,
			"source":9
		}
	],
	"images":[
		{
			"mimeType":"image/png",
			"name":"Image_6",
			"uri":"Image_6.png"
		},
		{
			"mimeType":"image/png",
			"name":"Image_4",
			"uri":"Image_4.png"
		},
		{
			"mimeType":"image/png",
			"name":"Image_5",
			"uri":"Image_5.png"
		},
		{
			"mimeType":"image/jpeg",
			"name":"Image_9",
			"uri":"Image_9.jpg"
		},
		{
			"mimeType":"image/png",
			"name":"Image_10",
			"uri":"Image_10.png"
		},
		{
			"mimeType":"image/png",
			"name":"Image_7",
			"uri":"Image_7.png"
		},
		{
			"mimeType":"image/png",
			"name":"Image_8",
			"uri":"Image_8.png"
		},
		{
			"mimeType":"image/png",
			"name":"Image_5",
			"uri":"Image_5-1.png"
		},
		{
			"mimeType":"image/png",
			"name":"Image_3",
			"uri":"Image_3.png"
		},
		{
			"mimeType":"image/png",
			"name":"Image_4",
			"uri":"Image_4-1.png"
		}
	],
	"accessors":[
		{
			"bufferView":0,
			"componentType":5126,
			"count":1467,
			"max":[
				0.6329669952392578,
				1.8164721727371216,
				0.6204714775085449
			],
			"min":[
				-0.31889915466308594,
				0.05366611108183861,
				-0.33100414276123047
			],
			"type":"VEC3"
		},
		{
			"bufferView":1,
			"componentType":5126,
			"count":1467,
			"type":"VEC3"
		},
		{
			"bufferView":2,
			"componentType":5126,
			"count":1467,
			"type":"VEC2"
		},
		{
			"bufferView":3,
			"componentType":5123,
			"count":6168,
			"type":"SCALAR"
		},
		{
			"bufferView":4,
			"componentType":5126,
			"count":3638,
			"max":[
				0.5782794952392578,
				2.974900007247925,
				0.8852696418762207
			],
			"min":[
				-0.21121788024902344,
				0.4537111222743988,
				-0.5060434341430664
			],
			"type":"VEC3"
		},
		{
			"bufferView":5,
			"componentType":5126,
			"count":3638,
			"type":"VEC3"
		},
		{
			"bufferView":6,
			"componentType":5126,
			"count":3638,
			"type":"VEC2"
		},
		{
			"bufferView":7,
			"componentType":5123,
			"count":17859,
			"type":"SCALAR"
		},
		{
			"bufferView":8,
			"componentType":5126,
			"count":112,
			"max":[
				1.5007317066192627,
				0.5971167087554932,
				2.6428263187408447
			],
			"min":[
				-1.2590596675872803,
				0.004130646586418152,
				-2.4304473400115967
			],
			"type":"VEC3"
		},
		{
			"bufferView":9,
			"componentType":5126,
			"count":112,
			"type":"VEC3"
		},
		{
			"bufferView":10,
			"componentType":5126,
			"count":112,
			"type":"VEC2"
		},
		{
			"bufferView":11,
			"componentType":5123,
			"count":168,
			"type":"SCALAR"
		},
		{
			"bufferView":12,
			"componentType":5126,
			"count":20,
			"max":[
				3.688060760498047,
				0.00343988835811615,
				3.6485166549682617
			],
			"min":[
				-3.3202857971191406,
				-0.1810006946325302,
				-3.359829902648926
			],
			"type":"VEC3"
		},
		{
			"bufferView":13,
			"componentType":5126,
			"count":20,
			"type":"VEC3"
		},
		{
			"bufferView":14,
			"componentType":5126,
			"count":20,
			"type":"VEC2"
		},
		{
			"bufferView":15,
			"componentType":5123,
			"count":30,
			"type":"SCALAR"
		},
		{
			"bufferView":16,
			"componentType":5126,
			"count":52,
			"max":[
				1.3933980464935303,
				-0.12006902694702148,
				1.3536584377288818
			],
			"min":[
				-1.0256192684173584,
				-3.908600330352783,
				-1.0653588771820068
			],
			"type":"VEC3"
		},
		{
			"bufferView":17,
			"componentType":5126,
			"count":52,
			"type":"VEC3"
		},
		{
			"bufferView":18,
			"componentType":5126,
			"count":52,
			"type":"VEC2"
		},
		{
			"bufferView":19,
			"componentType":5123,
			"count":78,
			"type":"SCALAR"
		},
		{
			"bufferView":20,
			"componentType":5126,
			"count":236,
			"max":[
				1.6473278999328613,
				0.5365042686462402,
				6.870899200439453
			],
			"min":[
				-1.2821184396743774,
				-3.890369415283203,
				-6.678700923919678
			],
			"type":"VEC3"
		},
		{
			"bufferView":21,
			"componentType":5126,
			"count":236,
			"type":"VEC3"
		},
		{
			"bufferView":22,
			"componentType":5126,
			"count":236,
			"type":"VEC2"
		},
		{
			"bufferView":23,
			"componentType":5123,
			"count":360,
			"type":"SCALAR"
		}
	],
	"bufferViews":[
		{
			"buffer":0,
			"byteLength":17604,
			"byteOffset":0,
			"target":34962
		},
		{
			"buffer":0,
			"byteLength":17604,
			"byteOffset":17604,
			"target":34962
		},
		{
			"buffer":0,
			"byteLength":11736,
			"byteOffset":35208,
			"target":34962
		},
		{
			"buffer":0,
			"byteLength":12336,
			"byteOffset":46944,
			"target":34963
		},
		{
			"buffer":0,
			"byteLength":43656,
			"byteOffset":59280,
			"target":34962
		},
		{
			"buffer":0,
			"byteLength":43656,
			"byteOffset":102936,
			"target":34962
		},
		{
			"buffer":0,
			"byteLength":29104,
			"byteOffset":146592,
			"target":34962
		},
		{
			"buffer":0,
			"byteLength":35718,
			"byteOffset":175696,
			"target":34963
		},
		{
			"buffer":0,
			"byteLength":1344,
			"byteOffset":211416,
			"target":34962
		},
		{
			"buffer":0,
			"byteLength":1344,
			"byteOffset":212760,
			"target":34962
		},
		{
			"buffer":0,
			"byteLength":896,
			"byteOffset":214104,
			"target":34962
		},
		{
			"buffer":0,
			"byteLength":336,
			"byteOffset":215000,
			"target":34963
		},
		{
			"buffer":0,
			"byteLength":240,
			"byteOffset":215336,
			"target":34962
		},
		{
			"buffer":0,
			"byteLength":240,
			"byteOffset":215576,
			"target":34962
		},
		{
			"buffer":0,
			"byteLength":160,
			"byteOffset":215816,
			"target":34962
		},
		{
			"buffer":0,
			"byteLength":60,
			"byteOffset":215976,
			"target":34963
		},
		{
			"buffer":0,
			"byteLength":624,
			"byteOffset":216036,
			"target":34962
		},
		{
			"buffer":0,
			"byteLength":624,
			"byteOffset":216660,
			"target":34962
		},
		{
			"buffer":0,
			"byteLength":416,
			"byteOffset":217284,
			"target":34962
		},
		{
			"buffer":0,
			"byteLength":156,
			"byteOffset":217700,
			"target":34963
		},
		{
			"buffer":0,
			"byteLength":2832,
			"byteOffset":217856,
			"target":34962
		},
		{
			"buffer":0,
			"byteLength":2832,
			"byteOffset":220688,
			"target":34962
		},
		{
			"buffer":0,
			"byteLength":1888,
			"byteOffset":223520,
			"target":34962
		},
		{
			"buffer":0,
			"byteLength":720,
			"byteOffset":225408,
			"target":34963
		}
	],
	"samplers":[
		{
			"magFilter":9729,
			"minFilter":9987
		}
	],
	"buffers":[
		{
			"byteLength":226128,
			"uri":"2table2.bin"
		}
	]
}
