{
	"asset":{
		"generator":"Khronos glTF Blender I/O v4.2.57",
		"version":"2.0"
	},
	"extensionsUsed":[
		"KHR_materials_clearcoat",
		"KHR_materials_specular"
	],
	"scene":0,
	"scenes":[
		{
			"name":"Scene",
			"nodes":[
				0
			]
		}
	],
	"nodes":[
		{
			"mesh":0,
			"name":"couch",
			"rotation":[
				0,
				-0.7072839736938477,
				0,
				0.7069295048713684
			],
			"scale":[
				0.05778531730175018,
				0.057785309851169586,
				0.05778531730175018
			],
			"translation":[
				1.1948708295822144,
				0.27419546246528625,
				-1.1389176845550537
			]
		}
	],
	"materials":[
		{
			"alphaMode":"BLEND",
			"doubleSided":true,
			"extensions":{
				"KHR_materials_clearcoat":{
					"clearcoatFactor":0.26923808455467224,
					"clearcoatRoughnessFactor":0.07467223703861237
				}
			},
			"name":"vase1.002",
			"normalTexture":{
				"index":0
			},
			"pbrMetallicRoughness":{
				"baseColorTexture":{
					"index":1
				},
				"metallicRoughnessTexture":{
					"index":2
				}
			}
		},
		{
			"alphaMode":"BLEND",
			"doubleSided":true,
			"emissiveFactor":[
				1,
				1,
				1
			],
			"emissiveTexture":{
				"index":3
			},
			"name":"flower1.002",
			"normalTexture":{
				"index":4
			},
			"pbrMetallicRoughness":{
				"baseColorTexture":{
					"index":5
				},
				"metallicFactor":0,
				"metallicRoughnessTexture":{
					"index":6
				}
			}
		},
		{
			"doubleSided":true,
			"extensions":{
				"KHR_materials_specular":{
					"specularColorFactor":[
						2.0,
						2.0,
						2.0
					]
				}
			},
			"name":"01 - Default",
			"pbrMetallicRoughness":{
				"baseColorTexture":{
					"index":7
				},
				"metallicFactor":0,
				"roughnessFactor":0.5527864098548889
			}
		},
		{
			"doubleSided":true,
			"extensions":{
				"KHR_materials_specular":{
					"specularFactor":0
				}
			},
			"name":"Foam_Black.001",
			"pbrMetallicRoughness":{
				"baseColorFactor":[
					0.2888900935649872,
					0.2888900935649872,
					0.2888900935649872,
					1
				],
				"metallicFactor":0
			}
		},
		{
			"doubleSided":true,
			"name":"Material.075",
			"pbrMetallicRoughness":{
				"baseColorFactor":[
					0.45640847086906433,
					0.18116438388824463,
					0.0998988077044487,
					1
				],
				"metallicFactor":0,
				"roughnessFactor":0.5
			}
		},
		{
			"doubleSided":true,
			"extensions":{
				"KHR_materials_specular":{
					"specularFactor":0
				}
			},
			"name":"21",
			"pbrMetallicRoughness":{
				"baseColorFactor":[
					0.07618498057126999,
					0.035601358860731125,
					0.01680738665163517,
					1
				],
				"metallicFactor":0
			}
		},
		{
			"doubleSided":true,
			"name":"212.001",
			"pbrMetallicRoughness":{
				"baseColorFactor":[
					0,
					0,
					0,
					1
				],
				"metallicFactor":0,
				"roughnessFactor":0.5
			}
		},
		{
			"doubleSided":true,
			"name":"Material.087",
			"pbrMetallicRoughness":{
				"baseColorFactor":[
					0.8007099628448486,
					0.38570261001586914,
					0.11588408797979355,
					1
				],
				"metallicFactor":0,
				"roughnessFactor":0.5
			}
		},
		{
			"alphaMode":"BLEND",
			"doubleSided":true,
			"name":"glass.003",
			"normalTexture":{
				"index":8
			},
			"pbrMetallicRoughness":{
				"baseColorTexture":{
					"index":9
				},
				"metallicRoughnessTexture":{
					"index":10
				}
			}
		}
	],
	"meshes":[
		{
			"name":"defaultMaterial.002",
			"primitives":[
				{
					"attributes":{
						"POSITION":0,
						"NORMAL":1,
						"TEXCOORD_0":2,
						"TEXCOORD_1":3
					},
					"indices":4,
					"material":0
				},
				{
					"attributes":{
						"POSITION":5,
						"NORMAL":6,
						"TEXCOORD_0":7,
						"TEXCOORD_1":8
					},
					"indices":9,
					"material":1
				},
				{
					"attributes":{
						"POSITION":10,
						"NORMAL":11,
						"TEXCOORD_0":12,
						"TEXCOORD_1":13
					},
					"indices":14,
					"material":2
				},
				{
					"attributes":{
						"POSITION":15,
						"NORMAL":16,
						"TEXCOORD_0":17,
						"TEXCOORD_1":18
					},
					"indices":19,
					"material":3
				},
				{
					"attributes":{
						"POSITION":20,
						"NORMAL":21,
						"TEXCOORD_0":22,
						"TEXCOORD_1":23
					},
					"indices":24,
					"material":4
				},
				{
					"attributes":{
						"POSITION":25,
						"NORMAL":26,
						"TEXCOORD_0":27,
						"TEXCOORD_1":28
					},
					"indices":29,
					"material":5
				},
				{
					"attributes":{
						"POSITION":30,
						"NORMAL":31,
						"TEXCOORD_0":32,
						"TEXCOORD_1":33
					},
					"indices":34,
					"material":6
				},
				{
					"attributes":{
						"POSITION":35,
						"NORMAL":36,
						"TEXCOORD_0":37,
						"TEXCOORD_1":38
					},
					"indices":39,
					"material":7
				},
				{
					"attributes":{
						"POSITION":40,
						"NORMAL":41,
						"TEXCOORD_0":42,
						"TEXCOORD_1":43
					},
					"indices":44,
					"material":8
				}
			]
		}
	],
	"textures":[
		{
			"sampler":0,
			"source":0
		},
		{
			"sampler":0,
			"source":1
		},
		{
			"sampler":0,
			"source":2
		},
		{
			"sampler":0,
			"source":3
		},
		{
			"sampler":0,
			"source":4
		},
		{
			"sampler":0,
			"source":5
		},
		{
			"sampler":0,
			"source":6
		},
		{
			"sampler":0,
			"source":7
		},
		{
			"sampler":0,
			"source":8
		},
		{
			"sampler":0,
			"source":9
		},
		{
			"sampler":0,
			"source":10
		}
	],
	"images":[
		{
			"mimeType":"image/png",
			"name":"Image_6",
			"uri":"Image_6.png"
		},
		{
			"mimeType":"image/png",
			"name":"Image_4",
			"uri":"Image_4.png"
		},
		{
			"mimeType":"image/png",
			"name":"Image_5",
			"uri":"Image_5.png"
		},
		{
			"mimeType":"image/jpeg",
			"name":"Image_9",
			"uri":"Image_9.jpg"
		},
		{
			"mimeType":"image/png",
			"name":"Image_10",
			"uri":"Image_10.png"
		},
		{
			"mimeType":"image/png",
			"name":"Image_7",
			"uri":"Image_7.png"
		},
		{
			"mimeType":"image/png",
			"name":"Image_8",
			"uri":"Image_8.png"
		},
		{
			"mimeType":"image/jpeg",
			"name":"129_light fine wood texture-seamless",
			"uri":"129_light%20fine%20wood%20texture-seamless.jpg"
		},
		{
			"mimeType":"image/png",
			"name":"Image_5",
			"uri":"Image_5-1.png"
		},
		{
			"mimeType":"image/png",
			"name":"Image_3",
			"uri":"Image_3.png"
		},
		{
			"mimeType":"image/png",
			"name":"Image_4",
			"uri":"Image_4-1.png"
		}
	],
	"accessors":[
		{
			"bufferView":0,
			"componentType":5126,
			"count":2934,
			"max":[
				4.572900772094727,
				1.767719030380249,
				2.900865077972412
			],
			"min":[
				-4.847410678863525,
				0.004912999924272299,
				-4.2091755867004395
			],
			"type":"VEC3"
		},
		{
			"bufferView":1,
			"componentType":5126,
			"count":2934,
			"type":"VEC3"
		},
		{
			"bufferView":2,
			"componentType":5126,
			"count":2934,
			"type":"VEC2"
		},
		{
			"bufferView":3,
			"componentType":5126,
			"count":2934,
			"type":"VEC2"
		},
		{
			"bufferView":4,
			"componentType":5123,
			"count":12336,
			"type":"SCALAR"
		},
		{
			"bufferView":5,
			"componentType":5126,
			"count":7276,
			"max":[
				4.518212795257568,
				2.926146984100342,
				3.0759024620056152
			],
			"min":[
				-4.792723178863525,
				0.40495800971984863,
				-4.384214878082275
			],
			"type":"VEC3"
		},
		{
			"bufferView":6,
			"componentType":5126,
			"count":7276,
			"type":"VEC3"
		},
		{
			"bufferView":7,
			"componentType":5126,
			"count":7276,
			"type":"VEC2"
		},
		{
			"bufferView":8,
			"componentType":5126,
			"count":7276,
			"type":"VEC2"
		},
		{
			"bufferView":9,
			"componentType":5123,
			"count":35718,
			"type":"SCALAR"
		},
		{
			"bufferView":10,
			"componentType":5126,
			"count":204,
			"max":[
				10.169132232666016,
				1.0410109758377075,
				3.9651384353637695
			],
			"min":[
				-14.518634796142578,
				-3.6261160373687744,
				-14.111467361450195
			],
			"type":"VEC3"
		},
		{
			"bufferView":11,
			"componentType":5126,
			"count":204,
			"type":"VEC3"
		},
		{
			"bufferView":12,
			"componentType":5126,
			"count":204,
			"type":"VEC2"
		},
		{
			"bufferView":13,
			"componentType":5126,
			"count":204,
			"type":"VEC2"
		},
		{
			"bufferView":14,
			"componentType":5123,
			"count":324,
			"type":"SCALAR"
		},
		{
			"bufferView":15,
			"componentType":5126,
			"count":384,
			"max":[
				9.218936920166016,
				-1.053086757659912,
				2.720667839050293
			],
			"min":[
				-13.50818920135498,
				-2.061394214630127,
				-12.994600296020508
			],
			"type":"VEC3"
		},
		{
			"bufferView":16,
			"componentType":5126,
			"count":384,
			"type":"VEC3"
		},
		{
			"bufferView":17,
			"componentType":5126,
			"count":384,
			"type":"VEC2"
		},
		{
			"bufferView":18,
			"componentType":5126,
			"count":384,
			"type":"VEC2"
		},
		{
			"bufferView":19,
			"componentType":5123,
			"count":528,
			"type":"SCALAR"
		},
		{
			"bufferView":20,
			"componentType":5126,
			"count":928,
			"max":[
				9.139896392822266,
				1.011927843093872,
				2.5763168334960938
			],
			"min":[
				-13.71252727508545,
				-1.0555163621902466,
				-13.2990083694458
			],
			"type":"VEC3"
		},
		{
			"bufferView":21,
			"componentType":5126,
			"count":928,
			"type":"VEC3"
		},
		{
			"bufferView":22,
			"componentType":5126,
			"count":928,
			"type":"VEC2"
		},
		{
			"bufferView":23,
			"componentType":5126,
			"count":928,
			"type":"VEC2"
		},
		{
			"bufferView":24,
			"componentType":5123,
			"count":1536,
			"type":"SCALAR"
		},
		{
			"bufferView":25,
			"componentType":5126,
			"count":624,
			"max":[
				16.339521408081055,
				0.34363508224487305,
				11.632442474365234
			],
			"min":[
				-13.036888122558594,
				-3.1064207553863525,
				-13.067564964294434
			],
			"type":"VEC3"
		},
		{
			"bufferView":26,
			"componentType":5126,
			"count":624,
			"type":"VEC3"
		},
		{
			"bufferView":27,
			"componentType":5126,
			"count":624,
			"type":"VEC2"
		},
		{
			"bufferView":28,
			"componentType":5126,
			"count":624,
			"type":"VEC2"
		},
		{
			"bufferView":29,
			"componentType":5123,
			"count":960,
			"type":"SCALAR"
		},
		{
			"bufferView":30,
			"componentType":5126,
			"count":216,
			"max":[
				16.869220733642578,
				0.3096599578857422,
				11.879874229431152
			],
			"min":[
				-13.304390907287598,
				-3.7074344158172607,
				-8.113500595092773
			],
			"type":"VEC3"
		},
		{
			"bufferView":31,
			"componentType":5126,
			"count":216,
			"type":"VEC3"
		},
		{
			"bufferView":32,
			"componentType":5126,
			"count":216,
			"type":"VEC2"
		},
		{
			"bufferView":33,
			"componentType":5126,
			"count":216,
			"type":"VEC2"
		},
		{
			"bufferView":34,
			"componentType":5123,
			"count":336,
			"type":"SCALAR"
		},
		{
			"bufferView":35,
			"componentType":5126,
			"count":36,
			"max":[
				10.451601028442383,
				-0.022840023040771484,
				9.053377151489258
			],
			"min":[
				-6.643991470336914,
				-0.39539480209350586,
				-5.760652542114258
			],
			"type":"VEC3"
		},
		{
			"bufferView":36,
			"componentType":5126,
			"count":36,
			"type":"VEC3"
		},
		{
			"bufferView":37,
			"componentType":5126,
			"count":36,
			"type":"VEC2"
		},
		{
			"bufferView":38,
			"componentType":5126,
			"count":36,
			"type":"VEC2"
		},
		{
			"bufferView":39,
			"componentType":5123,
			"count":60,
			"type":"SCALAR"
		},
		{
			"bufferView":40,
			"componentType":5126,
			"count":224,
			"max":[
				6.888508319854736,
				0.5739302039146423,
				6.3241047859191895
			],
			"min":[
				-5.648088455200195,
				-0.019056081771850586,
				-5.014692306518555
			],
			"type":"VEC3"
		},
		{
			"bufferView":41,
			"componentType":5126,
			"count":224,
			"type":"VEC3"
		},
		{
			"bufferView":42,
			"componentType":5126,
			"count":224,
			"type":"VEC2"
		},
		{
			"bufferView":43,
			"componentType":5126,
			"count":224,
			"type":"VEC2"
		},
		{
			"bufferView":44,
			"componentType":5123,
			"count":336,
			"type":"SCALAR"
		}
	],
	"bufferViews":[
		{
			"buffer":0,
			"byteLength":35208,
			"byteOffset":0,
			"target":34962
		},
		{
			"buffer":0,
			"byteLength":35208,
			"byteOffset":35208,
			"target":34962
		},
		{
			"buffer":0,
			"byteLength":23472,
			"byteOffset":70416,
			"target":34962
		},
		{
			"buffer":0,
			"byteLength":23472,
			"byteOffset":93888,
			"target":34962
		},
		{
			"buffer":0,
			"byteLength":24672,
			"byteOffset":117360,
			"target":34963
		},
		{
			"buffer":0,
			"byteLength":87312,
			"byteOffset":142032,
			"target":34962
		},
		{
			"buffer":0,
			"byteLength":87312,
			"byteOffset":229344,
			"target":34962
		},
		{
			"buffer":0,
			"byteLength":58208,
			"byteOffset":316656,
			"target":34962
		},
		{
			"buffer":0,
			"byteLength":58208,
			"byteOffset":374864,
			"target":34962
		},
		{
			"buffer":0,
			"byteLength":71436,
			"byteOffset":433072,
			"target":34963
		},
		{
			"buffer":0,
			"byteLength":2448,
			"byteOffset":504508,
			"target":34962
		},
		{
			"buffer":0,
			"byteLength":2448,
			"byteOffset":506956,
			"target":34962
		},
		{
			"buffer":0,
			"byteLength":1632,
			"byteOffset":509404,
			"target":34962
		},
		{
			"buffer":0,
			"byteLength":1632,
			"byteOffset":511036,
			"target":34962
		},
		{
			"buffer":0,
			"byteLength":648,
			"byteOffset":512668,
			"target":34963
		},
		{
			"buffer":0,
			"byteLength":4608,
			"byteOffset":513316,
			"target":34962
		},
		{
			"buffer":0,
			"byteLength":4608,
			"byteOffset":517924,
			"target":34962
		},
		{
			"buffer":0,
			"byteLength":3072,
			"byteOffset":522532,
			"target":34962
		},
		{
			"buffer":0,
			"byteLength":3072,
			"byteOffset":525604,
			"target":34962
		},
		{
			"buffer":0,
			"byteLength":1056,
			"byteOffset":528676,
			"target":34963
		},
		{
			"buffer":0,
			"byteLength":11136,
			"byteOffset":529732,
			"target":34962
		},
		{
			"buffer":0,
			"byteLength":11136,
			"byteOffset":540868,
			"target":34962
		},
		{
			"buffer":0,
			"byteLength":7424,
			"byteOffset":552004,
			"target":34962
		},
		{
			"buffer":0,
			"byteLength":7424,
			"byteOffset":559428,
			"target":34962
		},
		{
			"buffer":0,
			"byteLength":3072,
			"byteOffset":566852,
			"target":34963
		},
		{
			"buffer":0,
			"byteLength":7488,
			"byteOffset":569924,
			"target":34962
		},
		{
			"buffer":0,
			"byteLength":7488,
			"byteOffset":577412,
			"target":34962
		},
		{
			"buffer":0,
			"byteLength":4992,
			"byteOffset":584900,
			"target":34962
		},
		{
			"buffer":0,
			"byteLength":4992,
			"byteOffset":589892,
			"target":34962
		},
		{
			"buffer":0,
			"byteLength":1920,
			"byteOffset":594884,
			"target":34963
		},
		{
			"buffer":0,
			"byteLength":2592,
			"byteOffset":596804,
			"target":34962
		},
		{
			"buffer":0,
			"byteLength":2592,
			"byteOffset":599396,
			"target":34962
		},
		{
			"buffer":0,
			"byteLength":1728,
			"byteOffset":601988,
			"target":34962
		},
		{
			"buffer":0,
			"byteLength":1728,
			"byteOffset":603716,
			"target":34962
		},
		{
			"buffer":0,
			"byteLength":672,
			"byteOffset":605444,
			"target":34963
		},
		{
			"buffer":0,
			"byteLength":432,
			"byteOffset":606116,
			"target":34962
		},
		{
			"buffer":0,
			"byteLength":432,
			"byteOffset":606548,
			"target":34962
		},
		{
			"buffer":0,
			"byteLength":288,
			"byteOffset":606980,
			"target":34962
		},
		{
			"buffer":0,
			"byteLength":288,
			"byteOffset":607268,
			"target":34962
		},
		{
			"buffer":0,
			"byteLength":120,
			"byteOffset":607556,
			"target":34963
		},
		{
			"buffer":0,
			"byteLength":2688,
			"byteOffset":607676,
			"target":34962
		},
		{
			"buffer":0,
			"byteLength":2688,
			"byteOffset":610364,
			"target":34962
		},
		{
			"buffer":0,
			"byteLength":1792,
			"byteOffset":613052,
			"target":34962
		},
		{
			"buffer":0,
			"byteLength":1792,
			"byteOffset":614844,
			"target":34962
		},
		{
			"buffer":0,
			"byteLength":672,
			"byteOffset":616636,
			"target":34963
		}
	],
	"samplers":[
		{
			"magFilter":9729,
			"minFilter":9987
		}
	],
	"buffers":[
		{
			"byteLength":617308,
			"uri":"couch.bin"
		}
	]
}
