{
	"asset":{
		"generator":"Khronos glTF Blender I/O v4.2.57",
		"version":"2.0"
	},
	"extensionsUsed":[
		"KHR_materials_emissive_strength"
	],
	"scene":0,
	"scenes":[
		{
			"name":"Scene",
			"nodes":[
				0,
				1,
				2,
				3,
				4,
				5,
				6,
				7,
				8,
				9,
				10
			]
		}
	],
	"nodes":[
		{
			"mesh":0,
			"name":"Curve",
			"rotation":[
				0.70710688829422,
				0.00012204420636408031,
				-0.00012204422091599554,
				0.7071066498756409
			],
			"scale":[
				0.23144668340682983,
				0.23144672811031342,
				0.23144671320915222
			],
			"translation":[
				-2.00626540184021,
				0.7069767713546753,
				-2.0458245277404785
			]
		},
		{
			"mesh":1,
			"name":"Curve.001",
			"rotation":[
				0.70710688829422,
				0.00012204420636408031,
				-0.00012204422091599554,
				0.7071066498756409
			],
			"scale":[
				0.23144668340682983,
				0.23144672811031342,
				0.23144671320915222
			],
			"translation":[
				-2.00626540184021,
				0.7069767713546753,
				-2.0458245277404785
			]
		},
		{
			"mesh":2,
			"name":"Curve.002",
			"rotation":[
				0.5013976693153381,
				0.49859750270843506,
				-0.5015708804130554,
				0.49842509627342224
			],
			"scale":[
				0.1746026575565338,
				0.1746026575565338,
				0.1746026575565338
			],
			"translation":[
				-2.4676265716552734,
				0.523516058921814,
				-0.902420699596405
			]
		},
		{
			"mesh":3,
			"name":"lamp",
			"rotation":[
				0,
				1,
				0,
				0.00025068598915822804
			],
			"translation":[
				0.7154005169868469,
				0.7274344563484192,
				-1.0822643041610718
			]
		},
		{
			"mesh":4,
			"name":"lamp light",
			"rotation":[
				0,
				1,
				0,
				0.00025068598915822804
			],
			"translation":[
				0.7154005169868469,
				0.7274344563484192,
				-1.0822643041610718
			]
		},
		{
			"mesh":5,
			"name":"Line017",
			"rotation":[
				0.49987468123435974,
				-0.5001253485679626,
				0.5001252889633179,
				0.49987462162971497
			],
			"scale":[
				0.0008898398373275995,
				0.0008898398373275995,
				0.0008898398373275995
			],
			"translation":[
				1.6763149499893188,
				0.6048884987831116,
				-1.080445408821106
			]
		},
		{
			"mesh":6,
			"name":"Line021",
			"rotation":[
				0.49987468123435974,
				-0.5001253485679626,
				0.5001252889633179,
				0.49987462162971497
			],
			"scale":[
				0.0008898398373275995,
				0.0008898398373275995,
				0.0008898398373275995
			],
			"translation":[
				1.6763149499893188,
				0.6048884987831116,
				-1.080445408821106
			]
		},
		{
			"mesh":7,
			"name":"Cylinder",
			"rotation":[
				0,
				1,
				0,
				0.0002506859600543976
			],
			"scale":[
				0.10045696794986725,
				0.012509732507169247,
				0.10045696794986725
			],
			"translation":[
				1.4259886741638184,
				0.07009434700012207,
				-0.29901131987571716
			]
		},
		{
			"mesh":8,
			"name":"Curve.006",
			"scale":[
				0.7974842190742493,
				0.7974842190742493,
				0.7974842190742493
			],
			"translation":[
				0.8334070444107056,
				1.4124902486801147,
				0.9953945279121399
			]
		},
		{
			"mesh":9,
			"name":"Cylinder.001",
			"rotation":[
				0,
				1,
				0,
				0
			],
			"scale":[
				-0.08908843994140625,
				-0.0075997826643288136,
				-0.08908843994140625
			],
			"translation":[
				1.1008591651916504,
				1.5361138582229614,
				-1.1574491262435913
			]
		},
		{
			"mesh":10,
			"name":"Sphere",
			"scale":[
				0.043088752776384354,
				0.043088752776384354,
				0.043088752776384354
			],
			"translation":[
				-1.1424216032028198,
				1.4774041175842285,
				-1.0896365642547607
			]
		}
	],
	"materials":[
		{
			"doubleSided":true,
			"emissiveFactor":[
				1,
				0.0017252087127417326,
				0.013201487250626087
			],
			"extensions":{
				"KHR_materials_emissive_strength":{
					"emissiveStrength":8.796180725097656
				}
			},
			"name":"Material.108",
			"pbrMetallicRoughness":{
				"baseColorFactor":[
					0,
					0,
					0,
					1
				]
			}
		},
		{
			"doubleSided":true,
			"emissiveFactor":[
				0.02309899777173996,
				1,
				0.12815842032432556
			],
			"extensions":{
				"KHR_materials_emissive_strength":{
					"emissiveStrength":6.583756923675537
				}
			},
			"name":"Material.109",
			"pbrMetallicRoughness":{
				"baseColorFactor":[
					0,
					0,
					0,
					1
				]
			}
		},
		{
			"doubleSided":true,
			"emissiveFactor":[
				1,
				0.47303080558776855,
				0.04641219973564148
			],
			"extensions":{
				"KHR_materials_emissive_strength":{
					"emissiveStrength":10
				}
			},
			"name":"Material.110",
			"pbrMetallicRoughness":{
				"baseColorFactor":[
					0,
					0,
					0,
					1
				]
			}
		},
		{
			"doubleSided":true,
			"name":"Material.093",
			"pbrMetallicRoughness":{
				"baseColorFactor":[
					0,
					0,
					0,
					1
				],
				"metallicFactor":0,
				"roughnessFactor":0.5
			}
		},
		{
			"doubleSided":true,
			"emissiveFactor":[
				1,
				0.4976010322570801,
				0.1853509545326233
			],
			"extensions":{
				"KHR_materials_emissive_strength":{
					"emissiveStrength":5
				}
			},
			"name":"Material.094",
			"pbrMetallicRoughness":{
				"baseColorFactor":[
					0,
					0,
					0,
					1
				]
			}
		},
		{
			"doubleSided":true,
			"emissiveFactor":[
				0.5,
				0.0007874114671722054,
				0.003959819208830595
			],
			"name":"Material.081",
			"pbrMetallicRoughness":{
				"baseColorFactor":[
					0,
					0,
					0,
					1
				]
			}
		},
		{
			"doubleSided":true,
			"emissiveFactor":[
				1,
				0,
				0
			],
			"extensions":{
				"KHR_materials_emissive_strength":{
					"emissiveStrength":10
				}
			},
			"name":"wire_138008110.001",
			"pbrMetallicRoughness":{
				"baseColorFactor":[
					0,
					0,
					0,
					1
				]
			}
		},
		{
			"doubleSided":true,
			"name":"Material.097",
			"pbrMetallicRoughness":{
				"baseColorFactor":[
					0.3919193744659424,
					0.19290651381015778,
					0.06099940463900566,
					1
				],
				"metallicFactor":0,
				"roughnessFactor":0.5
			}
		},
		{
			"doubleSided":true,
			"emissiveFactor":[
				1,
				1,
				1
			],
			"extensions":{
				"KHR_materials_emissive_strength":{
					"emissiveStrength":5
				}
			},
			"name":"Material.043",
			"pbrMetallicRoughness":{
				"baseColorFactor":[
					0,
					0,
					0,
					1
				]
			}
		},
		{
			"doubleSided":true,
			"name":"212.001",
			"pbrMetallicRoughness":{
				"baseColorFactor":[
					0,
					0,
					0,
					1
				],
				"metallicFactor":0,
				"roughnessFactor":0.5
			}
		},
		{
			"doubleSided":true,
			"emissiveFactor":[
				1,
				1,
				1
			],
			"extensions":{
				"KHR_materials_emissive_strength":{
					"emissiveStrength":5
				}
			},
			"name":"Material.030",
			"pbrMetallicRoughness":{
				"baseColorFactor":[
					0,
					0,
					0,
					1
				]
			}
		},
		{
			"doubleSided":true,
			"name":"Material.031",
			"pbrMetallicRoughness":{
				"baseColorFactor":[
					0,
					0,
					0,
					1
				],
				"metallicFactor":0,
				"roughnessFactor":0.5
			}
		},
		{
			"doubleSided":true,
			"emissiveFactor":[
				1,
				1,
				1
			],
			"extensions":{
				"KHR_materials_emissive_strength":{
					"emissiveStrength":10
				}
			},
			"name":"Material.063",
			"pbrMetallicRoughness":{
				"baseColorFactor":[
					0,
					0,
					0,
					1
				]
			}
		},
		{
			"doubleSided":true,
			"name":"Material.064",
			"pbrMetallicRoughness":{
				"baseColorFactor":[
					0,
					0,
					0,
					1
				],
				"metallicFactor":0,
				"roughnessFactor":0.5
			}
		},
		{
			"doubleSided":true,
			"name":"Material.065",
			"pbrMetallicRoughness":{
				"baseColorFactor":[
					0,
					0,
					0,
					1
				],
				"metallicFactor":0,
				"roughnessFactor":0.5
			}
		}
	],
	"meshes":[
		{
			"name":"Curve",
			"primitives":[
				{
					"attributes":{
						"POSITION":0,
						"NORMAL":1,
						"TEXCOORD_0":2
					},
					"indices":3,
					"material":0
				}
			]
		},
		{
			"name":"Curve.001",
			"primitives":[
				{
					"attributes":{
						"POSITION":4,
						"NORMAL":5,
						"TEXCOORD_0":6
					},
					"indices":7,
					"material":1
				}
			]
		},
		{
			"name":"Curve.002",
			"primitives":[
				{
					"attributes":{
						"POSITION":8,
						"NORMAL":9,
						"TEXCOORD_0":10
					},
					"indices":11,
					"material":2
				}
			]
		},
		{
			"name":"B\u00e9zierCurve",
			"primitives":[
				{
					"attributes":{
						"POSITION":12,
						"NORMAL":13,
						"TEXCOORD_0":14
					},
					"indices":15,
					"material":3
				}
			]
		},
		{
			"name":"B\u00e9zierCurve.001",
			"primitives":[
				{
					"attributes":{
						"POSITION":16,
						"NORMAL":17,
						"TEXCOORD_0":18
					},
					"indices":19,
					"material":4
				}
			]
		},
		{
			"name":"Line017",
			"primitives":[
				{
					"attributes":{
						"POSITION":20,
						"NORMAL":21,
						"TEXCOORD_0":22
					},
					"indices":23,
					"material":5
				}
			]
		},
		{
			"name":"Line021",
			"primitives":[
				{
					"attributes":{
						"POSITION":24,
						"NORMAL":25,
						"TEXCOORD_0":26
					},
					"indices":27,
					"material":6
				}
			]
		},
		{
			"name":"Cylinder",
			"primitives":[
				{
					"attributes":{
						"POSITION":28,
						"NORMAL":29,
						"TEXCOORD_0":30
					},
					"indices":31,
					"material":7
				}
			]
		},
		{
			"name":"Curve.007",
			"primitives":[
				{
					"attributes":{
						"POSITION":32,
						"NORMAL":33,
						"TEXCOORD_0":34
					},
					"indices":35,
					"material":8
				},
				{
					"attributes":{
						"POSITION":36,
						"NORMAL":37,
						"TEXCOORD_0":38
					},
					"indices":39,
					"material":9
				}
			]
		},
		{
			"name":"Cylinder.003",
			"primitives":[
				{
					"attributes":{
						"POSITION":40,
						"NORMAL":41,
						"TEXCOORD_0":42
					},
					"indices":43,
					"material":10
				},
				{
					"attributes":{
						"POSITION":44,
						"NORMAL":45,
						"TEXCOORD_0":46
					},
					"indices":47,
					"material":11
				}
			]
		},
		{
			"name":"Sphere.004",
			"primitives":[
				{
					"attributes":{
						"POSITION":48,
						"NORMAL":49,
						"TEXCOORD_0":50
					},
					"indices":51,
					"material":12
				},
				{
					"attributes":{
						"POSITION":52,
						"NORMAL":53,
						"TEXCOORD_0":54
					},
					"indices":55,
					"material":13
				},
				{
					"attributes":{
						"POSITION":56,
						"NORMAL":57,
						"TEXCOORD_0":58
					},
					"indices":59,
					"material":14
				}
			]
		}
	],
	"accessors":[
		{
			"bufferView":0,
			"componentType":5126,
			"count":6071,
			"max":[
				5.485065460205078,
				0.030595894902944565,
				-0.1330944001674652
			],
			"min":[
				2.576665163040161,
				-0.02940412238240242,
				-2.7389845848083496
			],
			"type":"VEC3"
		},
		{
			"bufferView":1,
			"componentType":5126,
			"count":6071,
			"type":"VEC3"
		},
		{
			"bufferView":2,
			"componentType":5126,
			"count":6071,
			"type":"VEC2"
		},
		{
			"bufferView":3,
			"componentType":5123,
			"count":32832,
			"type":"SCALAR"
		},
		{
			"bufferView":4,
			"componentType":5126,
			"count":3042,
			"max":[
				6.035088539123535,
				0.030595894902944565,
				0.029650676995515823
			],
			"min":[
				1.6966578960418701,
				-0.02940412238240242,
				-2.4096519947052
			],
			"type":"VEC3"
		},
		{
			"bufferView":5,
			"componentType":5126,
			"count":3042,
			"type":"VEC3"
		},
		{
			"bufferView":6,
			"componentType":5126,
			"count":3042,
			"type":"VEC2"
		},
		{
			"bufferView":7,
			"componentType":5123,
			"count":16416,
			"type":"SCALAR"
		},
		{
			"bufferView":8,
			"componentType":5126,
			"count":10023,
			"max":[
				2.178450107574463,
				2.3181941509246826,
				0.016052285209298134
			],
			"min":[
				-0.030503572896122932,
				2.2581942081451416,
				-4.6858415603637695
			],
			"type":"VEC3"
		},
		{
			"bufferView":9,
			"componentType":5126,
			"count":10023,
			"type":"VEC3"
		},
		{
			"bufferView":10,
			"componentType":5126,
			"count":10023,
			"type":"VEC2"
		},
		{
			"bufferView":11,
			"componentType":5123,
			"count":55440,
			"type":"SCALAR"
		},
		{
			"bufferView":12,
			"componentType":5126,
			"count":101,
			"max":[
				0.5019038915634155,
				0.037626978009939194,
				0.85589200258255
			],
			"min":[
				0.0967034101486206,
				-0.6689203381538391,
				0.6281126737594604
			],
			"type":"VEC3"
		},
		{
			"bufferView":13,
			"componentType":5126,
			"count":101,
			"type":"VEC3"
		},
		{
			"bufferView":14,
			"componentType":5126,
			"count":101,
			"type":"VEC2"
		},
		{
			"bufferView":15,
			"componentType":5123,
			"count":426,
			"type":"SCALAR"
		},
		{
			"bufferView":16,
			"componentType":5126,
			"count":75,
			"max":[
				0.4457283616065979,
				0.3094921410083771,
				0.6463525295257568
			],
			"min":[
				-0.08910515904426575,
				0.02637356147170067,
				0.4557594954967499
			],
			"type":"VEC3"
		},
		{
			"bufferView":17,
			"componentType":5126,
			"count":75,
			"type":"VEC3"
		},
		{
			"bufferView":18,
			"componentType":5126,
			"count":75,
			"type":"VEC2"
		},
		{
			"bufferView":19,
			"componentType":5123,
			"count":342,
			"type":"SCALAR"
		},
		{
			"bufferView":20,
			"componentType":5126,
			"count":135483,
			"max":[
				390.4863586425781,
				-327.5484619140625,
				-5.915225505828857
			],
			"min":[
				-390.3437194824219,
				-447.6363525390625,
				-444.9804382324219
			],
			"type":"VEC3"
		},
		{
			"bufferView":21,
			"componentType":5126,
			"count":135483,
			"type":"VEC3"
		},
		{
			"bufferView":22,
			"componentType":5126,
			"count":135483,
			"type":"VEC2"
		},
		{
			"bufferView":23,
			"componentType":5125,
			"count":750456,
			"type":"SCALAR"
		},
		{
			"bufferView":24,
			"componentType":5126,
			"count":1000,
			"max":[
				393.7873840332031,
				-419.6187438964844,
				-46.15192794799805
			],
			"min":[
				-394.4607238769531,
				-443.9508361816406,
				-410.4747314453125
			],
			"type":"VEC3"
		},
		{
			"bufferView":25,
			"componentType":5126,
			"count":1000,
			"type":"VEC3"
		},
		{
			"bufferView":26,
			"componentType":5126,
			"count":1000,
			"type":"VEC2"
		},
		{
			"bufferView":27,
			"componentType":5123,
			"count":3900,
			"type":"SCALAR"
		},
		{
			"bufferView":28,
			"componentType":5126,
			"count":2077,
			"max":[
				-2.9771440029144287,
				39.29912567138672,
				1.001994013786316
			],
			"min":[
				-4.977144241333008,
				-1,
				-0.9980059862136841
			],
			"type":"VEC3"
		},
		{
			"bufferView":29,
			"componentType":5126,
			"count":2077,
			"type":"VEC3"
		},
		{
			"bufferView":30,
			"componentType":5126,
			"count":2077,
			"type":"VEC2"
		},
		{
			"bufferView":31,
			"componentType":5123,
			"count":3156,
			"type":"SCALAR"
		},
		{
			"bufferView":32,
			"componentType":5126,
			"count":1261,
			"max":[
				0.26597660779953003,
				0.07682295888662338,
				0.26569095253944397
			],
			"min":[
				-0.2660013735294342,
				-0.0949203222990036,
				-0.2656154930591583
			],
			"type":"VEC3"
		},
		{
			"bufferView":33,
			"componentType":5126,
			"count":1261,
			"type":"VEC3"
		},
		{
			"bufferView":34,
			"componentType":5126,
			"count":1261,
			"type":"VEC2"
		},
		{
			"bufferView":35,
			"componentType":5123,
			"count":6912,
			"type":"SCALAR"
		},
		{
			"bufferView":36,
			"componentType":5126,
			"count":785,
			"max":[
				0.24531453847885132,
				0.24018479883670807,
				0.2442893534898758
			],
			"min":[
				-0.24300867319107056,
				0.044895969331264496,
				-0.24403385818004608
			],
			"type":"VEC3"
		},
		{
			"bufferView":37,
			"componentType":5126,
			"count":785,
			"type":"VEC3"
		},
		{
			"bufferView":38,
			"componentType":5126,
			"count":785,
			"type":"VEC2"
		},
		{
			"bufferView":39,
			"componentType":5123,
			"count":3672,
			"type":"SCALAR"
		},
		{
			"bufferView":40,
			"componentType":5126,
			"count":346,
			"max":[
				6.480999946594238,
				19.7808895111084,
				6.48099946975708
			],
			"min":[
				-6.4810004234313965,
				18.901695251464844,
				-6.4810004234313965
			],
			"type":"VEC3"
		},
		{
			"bufferView":41,
			"componentType":5126,
			"count":346,
			"type":"VEC3"
		},
		{
			"bufferView":42,
			"componentType":5126,
			"count":346,
			"type":"VEC2"
		},
		{
			"bufferView":43,
			"componentType":5123,
			"count":504,
			"type":"SCALAR"
		},
		{
			"bufferView":44,
			"componentType":5126,
			"count":681,
			"max":[
				5.361355781555176,
				19.780902862548828,
				5.361355781555176
			],
			"min":[
				-5.361355781555176,
				-10.413003921508789,
				-5.361355781555176
			],
			"type":"VEC3"
		},
		{
			"bufferView":45,
			"componentType":5126,
			"count":681,
			"type":"VEC3"
		},
		{
			"bufferView":46,
			"componentType":5126,
			"count":681,
			"type":"VEC2"
		},
		{
			"bufferView":47,
			"componentType":5123,
			"count":1068,
			"type":"SCALAR"
		},
		{
			"bufferView":48,
			"componentType":5126,
			"count":2101,
			"max":[
				0.9999997019767761,
				2.2761342525482178,
				0.9999993443489075
			],
			"min":[
				-0.9999990463256836,
				-1,
				-1
			],
			"type":"VEC3"
		},
		{
			"bufferView":49,
			"componentType":5126,
			"count":2101,
			"type":"VEC3"
		},
		{
			"bufferView":50,
			"componentType":5126,
			"count":2101,
			"type":"VEC2"
		},
		{
			"bufferView":51,
			"componentType":5123,
			"count":3066,
			"type":"SCALAR"
		},
		{
			"bufferView":52,
			"componentType":5126,
			"count":204,
			"max":[
				0.1393669843673706,
				3.2184641361236572,
				0.1393669843673706
			],
			"min":[
				-0.1393669843673706,
				1.9298131465911865,
				-0.1393669843673706
			],
			"type":"VEC3"
		},
		{
			"bufferView":53,
			"componentType":5126,
			"count":204,
			"type":"VEC3"
		},
		{
			"bufferView":54,
			"componentType":5126,
			"count":204,
			"type":"VEC2"
		},
		{
			"bufferView":55,
			"componentType":5123,
			"count":372,
			"type":"SCALAR"
		},
		{
			"bufferView":56,
			"componentType":5126,
			"count":964,
			"max":[
				3.7371721267700195,
				2.3268468379974365,
				3.6887521743774414
			],
			"min":[
				-3.7101893424987793,
				-2.635859966278076,
				-3.960742473602295
			],
			"type":"VEC3"
		},
		{
			"bufferView":57,
			"componentType":5126,
			"count":964,
			"type":"VEC3"
		},
		{
			"bufferView":58,
			"componentType":5126,
			"count":964,
			"type":"VEC2"
		},
		{
			"bufferView":59,
			"componentType":5123,
			"count":1152,
			"type":"SCALAR"
		}
	],
	"bufferViews":[
		{
			"buffer":0,
			"byteLength":72852,
			"byteOffset":0,
			"target":34962
		},
		{
			"buffer":0,
			"byteLength":72852,
			"byteOffset":72852,
			"target":34962
		},
		{
			"buffer":0,
			"byteLength":48568,
			"byteOffset":145704,
			"target":34962
		},
		{
			"buffer":0,
			"byteLength":65664,
			"byteOffset":194272,
			"target":34963
		},
		{
			"buffer":0,
			"byteLength":36504,
			"byteOffset":259936,
			"target":34962
		},
		{
			"buffer":0,
			"byteLength":36504,
			"byteOffset":296440,
			"target":34962
		},
		{
			"buffer":0,
			"byteLength":24336,
			"byteOffset":332944,
			"target":34962
		},
		{
			"buffer":0,
			"byteLength":32832,
			"byteOffset":357280,
			"target":34963
		},
		{
			"buffer":0,
			"byteLength":120276,
			"byteOffset":390112,
			"target":34962
		},
		{
			"buffer":0,
			"byteLength":120276,
			"byteOffset":510388,
			"target":34962
		},
		{
			"buffer":0,
			"byteLength":80184,
			"byteOffset":630664,
			"target":34962
		},
		{
			"buffer":0,
			"byteLength":110880,
			"byteOffset":710848,
			"target":34963
		},
		{
			"buffer":0,
			"byteLength":1212,
			"byteOffset":821728,
			"target":34962
		},
		{
			"buffer":0,
			"byteLength":1212,
			"byteOffset":822940,
			"target":34962
		},
		{
			"buffer":0,
			"byteLength":808,
			"byteOffset":824152,
			"target":34962
		},
		{
			"buffer":0,
			"byteLength":852,
			"byteOffset":824960,
			"target":34963
		},
		{
			"buffer":0,
			"byteLength":900,
			"byteOffset":825812,
			"target":34962
		},
		{
			"buffer":0,
			"byteLength":900,
			"byteOffset":826712,
			"target":34962
		},
		{
			"buffer":0,
			"byteLength":600,
			"byteOffset":827612,
			"target":34962
		},
		{
			"buffer":0,
			"byteLength":684,
			"byteOffset":828212,
			"target":34963
		},
		{
			"buffer":0,
			"byteLength":1625796,
			"byteOffset":828896,
			"target":34962
		},
		{
			"buffer":0,
			"byteLength":1625796,
			"byteOffset":2454692,
			"target":34962
		},
		{
			"buffer":0,
			"byteLength":1083864,
			"byteOffset":4080488,
			"target":34962
		},
		{
			"buffer":0,
			"byteLength":3001824,
			"byteOffset":5164352,
			"target":34963
		},
		{
			"buffer":0,
			"byteLength":12000,
			"byteOffset":8166176,
			"target":34962
		},
		{
			"buffer":0,
			"byteLength":12000,
			"byteOffset":8178176,
			"target":34962
		},
		{
			"buffer":0,
			"byteLength":8000,
			"byteOffset":8190176,
			"target":34962
		},
		{
			"buffer":0,
			"byteLength":7800,
			"byteOffset":8198176,
			"target":34963
		},
		{
			"buffer":0,
			"byteLength":24924,
			"byteOffset":8205976,
			"target":34962
		},
		{
			"buffer":0,
			"byteLength":24924,
			"byteOffset":8230900,
			"target":34962
		},
		{
			"buffer":0,
			"byteLength":16616,
			"byteOffset":8255824,
			"target":34962
		},
		{
			"buffer":0,
			"byteLength":6312,
			"byteOffset":8272440,
			"target":34963
		},
		{
			"buffer":0,
			"byteLength":15132,
			"byteOffset":8278752,
			"target":34962
		},
		{
			"buffer":0,
			"byteLength":15132,
			"byteOffset":8293884,
			"target":34962
		},
		{
			"buffer":0,
			"byteLength":10088,
			"byteOffset":8309016,
			"target":34962
		},
		{
			"buffer":0,
			"byteLength":13824,
			"byteOffset":8319104,
			"target":34963
		},
		{
			"buffer":0,
			"byteLength":9420,
			"byteOffset":8332928,
			"target":34962
		},
		{
			"buffer":0,
			"byteLength":9420,
			"byteOffset":8342348,
			"target":34962
		},
		{
			"buffer":0,
			"byteLength":6280,
			"byteOffset":8351768,
			"target":34962
		},
		{
			"buffer":0,
			"byteLength":7344,
			"byteOffset":8358048,
			"target":34963
		},
		{
			"buffer":0,
			"byteLength":4152,
			"byteOffset":8365392,
			"target":34962
		},
		{
			"buffer":0,
			"byteLength":4152,
			"byteOffset":8369544,
			"target":34962
		},
		{
			"buffer":0,
			"byteLength":2768,
			"byteOffset":8373696,
			"target":34962
		},
		{
			"buffer":0,
			"byteLength":1008,
			"byteOffset":8376464,
			"target":34963
		},
		{
			"buffer":0,
			"byteLength":8172,
			"byteOffset":8377472,
			"target":34962
		},
		{
			"buffer":0,
			"byteLength":8172,
			"byteOffset":8385644,
			"target":34962
		},
		{
			"buffer":0,
			"byteLength":5448,
			"byteOffset":8393816,
			"target":34962
		},
		{
			"buffer":0,
			"byteLength":2136,
			"byteOffset":8399264,
			"target":34963
		},
		{
			"buffer":0,
			"byteLength":25212,
			"byteOffset":8401400,
			"target":34962
		},
		{
			"buffer":0,
			"byteLength":25212,
			"byteOffset":8426612,
			"target":34962
		},
		{
			"buffer":0,
			"byteLength":16808,
			"byteOffset":8451824,
			"target":34962
		},
		{
			"buffer":0,
			"byteLength":6132,
			"byteOffset":8468632,
			"target":34963
		},
		{
			"buffer":0,
			"byteLength":2448,
			"byteOffset":8474764,
			"target":34962
		},
		{
			"buffer":0,
			"byteLength":2448,
			"byteOffset":8477212,
			"target":34962
		},
		{
			"buffer":0,
			"byteLength":1632,
			"byteOffset":8479660,
			"target":34962
		},
		{
			"buffer":0,
			"byteLength":744,
			"byteOffset":8481292,
			"target":34963
		},
		{
			"buffer":0,
			"byteLength":11568,
			"byteOffset":8482036,
			"target":34962
		},
		{
			"buffer":0,
			"byteLength":11568,
			"byteOffset":8493604,
			"target":34962
		},
		{
			"buffer":0,
			"byteLength":7712,
			"byteOffset":8505172,
			"target":34962
		},
		{
			"buffer":0,
			"byteLength":2304,
			"byteOffset":8512884,
			"target":34963
		}
	],
	"buffers":[
		{
			"byteLength":8515188,
			"uri":"art.bin"
		}
	]
}
