{
	"asset":{
		"generator":"Khronos glTF Blender I/O v4.2.57",
		"version":"2.0"
	},
	"extensionsUsed":[
		"KHR_materials_emissive_strength"
	],
	"scene":0,
	"scenes":[
		{
			"name":"Scene",
			"nodes":[
				0
			]
		}
	],
	"nodes":[
		{
			"mesh":0,
			"name":"art",
			"rotation":[
				0.70710688829422,
				0.00012204420636408031,
				-0.00012204422091599554,
				0.7071066498756409
			],
			"scale":[
				0.23144668340682983,
				0.23144672811031342,
				0.23144671320915222
			],
			"translation":[
				0.02141815423965454,
				0.7748735547065735,
				-2.030378580093384
			]
		}
	],
	"materials":[
		{
			"doubleSided":true,
			"emissiveFactor":[
				0.02309899777173996,
				1,
				0.12815842032432556
			],
			"extensions":{
				"KHR_materials_emissive_strength":{
					"emissiveStrength":6.583756923675537
				}
			},
			"name":"Material.109",
			"pbrMetallicRoughness":{
				"baseColorFactor":[
					0,
					0,
					0,
					1
				]
			}
		},
		{
			"doubleSided":true,
			"emissiveFactor":[
				1,
				0.0017252087127417326,
				0.013201487250626087
			],
			"extensions":{
				"KHR_materials_emissive_strength":{
					"emissiveStrength":8.796180725097656
				}
			},
			"name":"Material.108",
			"pbrMetallicRoughness":{
				"baseColorFactor":[
					0,
					0,
					0,
					1
				]
			}
		},
		{
			"doubleSided":true,
			"emissiveFactor":[
				1,
				0.47303080558776855,
				0.04641219973564148
			],
			"extensions":{
				"KHR_materials_emissive_strength":{
					"emissiveStrength":10
				}
			},
			"name":"Material.110",
			"pbrMetallicRoughness":{
				"baseColorFactor":[
					0,
					0,
					0,
					1
				]
			}
		},
		{
			"doubleSided":true,
			"emissiveFactor":[
				0.5,
				0.0007874114671722054,
				0.003959819208830595
			],
			"name":"Material.081",
			"pbrMetallicRoughness":{
				"baseColorFactor":[
					0,
					0,
					0,
					1
				]
			}
		},
		{
			"doubleSided":true,
			"emissiveFactor":[
				1,
				0,
				0
			],
			"extensions":{
				"KHR_materials_emissive_strength":{
					"emissiveStrength":10
				}
			},
			"name":"wire_138008110.001",
			"pbrMetallicRoughness":{
				"baseColorFactor":[
					0,
					0,
					0,
					1
				]
			}
		},
		{
			"doubleSided":true,
			"emissiveFactor":[
				1,
				1,
				1
			],
			"extensions":{
				"KHR_materials_emissive_strength":{
					"emissiveStrength":5
				}
			},
			"name":"Material.043",
			"pbrMetallicRoughness":{
				"baseColorFactor":[
					0,
					0,
					0,
					1
				]
			}
		},
		{
			"doubleSided":true,
			"name":"212.001",
			"pbrMetallicRoughness":{
				"baseColorFactor":[
					0,
					0,
					0,
					1
				],
				"metallicFactor":0,
				"roughnessFactor":0.5
			}
		},
		{
			"doubleSided":true,
			"emissiveFactor":[
				1,
				1,
				1
			],
			"extensions":{
				"KHR_materials_emissive_strength":{
					"emissiveStrength":5
				}
			},
			"name":"Material.030",
			"pbrMetallicRoughness":{
				"baseColorFactor":[
					0,
					0,
					0,
					1
				]
			}
		},
		{
			"doubleSided":true,
			"name":"Material.031",
			"pbrMetallicRoughness":{
				"baseColorFactor":[
					0,
					0,
					0,
					1
				],
				"metallicFactor":0,
				"roughnessFactor":0.5
			}
		},
		{
			"doubleSided":true,
			"emissiveFactor":[
				1,
				0.9550568461418152,
				0.09025425463914871
			],
			"extensions":{
				"KHR_materials_emissive_strength":{
					"emissiveStrength":9.48933219909668
				}
			},
			"name":"Material",
			"pbrMetallicRoughness":{
				"baseColorFactor":[
					0,
					0,
					0,
					1
				]
			}
		}
	],
	"meshes":[
		{
			"name":"Curve.001",
			"primitives":[
				{
					"attributes":{
						"POSITION":0,
						"NORMAL":1,
						"TEXCOORD_0":2
					},
					"indices":3,
					"material":0
				},
				{
					"attributes":{
						"POSITION":4,
						"NORMAL":5,
						"TEXCOORD_0":6
					},
					"indices":7,
					"material":1
				},
				{
					"attributes":{
						"POSITION":8,
						"NORMAL":9,
						"TEXCOORD_0":10
					},
					"indices":11,
					"material":2
				},
				{
					"attributes":{
						"POSITION":12,
						"NORMAL":13,
						"TEXCOORD_0":14
					},
					"indices":15,
					"material":3
				},
				{
					"attributes":{
						"POSITION":16,
						"NORMAL":17,
						"TEXCOORD_0":18
					},
					"indices":19,
					"material":4
				},
				{
					"attributes":{
						"POSITION":20,
						"NORMAL":21,
						"TEXCOORD_0":22
					},
					"indices":23,
					"material":5
				},
				{
					"attributes":{
						"POSITION":24,
						"NORMAL":25,
						"TEXCOORD_0":26
					},
					"indices":27,
					"material":6
				},
				{
					"attributes":{
						"POSITION":28,
						"NORMAL":29,
						"TEXCOORD_0":30
					},
					"indices":31,
					"material":7
				},
				{
					"attributes":{
						"POSITION":32,
						"NORMAL":33,
						"TEXCOORD_0":34
					},
					"indices":35,
					"material":8
				},
				{
					"attributes":{
						"POSITION":36,
						"NORMAL":37,
						"TEXCOORD_0":38
					},
					"indices":39,
					"material":9
				}
			]
		}
	],
	"accessors":[
		{
			"bufferView":0,
			"componentType":5126,
			"count":3042,
			"max":[
				2.152643918991089,
				0.029256083071231842,
				1.310247778892517
			],
			"min":[
				-2.185786724090576,
				-0.030743934214115143,
				-1.1290549039840698
			],
			"type":"VEC3"
		},
		{
			"bufferView":1,
			"componentType":5126,
			"count":3042,
			"type":"VEC3"
		},
		{
			"bufferView":2,
			"componentType":5126,
			"count":3042,
			"type":"VEC2"
		},
		{
			"bufferView":3,
			"componentType":5123,
			"count":16416,
			"type":"SCALAR"
		},
		{
			"bufferView":4,
			"componentType":5126,
			"count":6071,
			"max":[
				1.6026203632354736,
				0.029256081208586693,
				1.1475024223327637
			],
			"min":[
				-1.3057796955108643,
				-0.030743932351469994,
				-1.4583877325057983
			],
			"type":"VEC3"
		},
		{
			"bufferView":5,
			"componentType":5126,
			"count":6071,
			"type":"VEC3"
		},
		{
			"bufferView":6,
			"componentType":5126,
			"count":6071,
			"type":"VEC2"
		},
		{
			"bufferView":7,
			"componentType":5123,
			"count":32832,
			"type":"SCALAR"
		},
		{
			"bufferView":8,
			"componentType":5126,
			"count":10023,
			"max":[
				-8.895309448242188,
				8.704140663146973,
				1.7588616609573364
			],
			"min":[
				-8.961394309997559,
				7.037713050842285,
				-1.7881696224212646
			],
			"type":"VEC3"
		},
		{
			"bufferView":9,
			"componentType":5126,
			"count":10023,
			"type":"VEC3"
		},
		{
			"bufferView":10,
			"componentType":5126,
			"count":10023,
			"type":"VEC2"
		},
		{
			"bufferView":11,
			"componentType":5123,
			"count":55440,
			"type":"SCALAR"
		},
		{
			"bufferView":12,
			"componentType":5126,
			"count":242494,
			"max":[
				8.805448532104492,
				5.233469486236572,
				0.7320299744606018
			],
			"min":[
				8.342696189880371,
				2.231323480606079,
				-0.9560377597808838
			],
			"type":"VEC3"
		},
		{
			"bufferView":13,
			"componentType":5126,
			"count":242494,
			"type":"VEC3"
		},
		{
			"bufferView":14,
			"componentType":5126,
			"count":242494,
			"type":"VEC2"
		},
		{
			"bufferView":15,
			"componentType":5125,
			"count":750456,
			"type":"SCALAR"
		},
		{
			"bufferView":16,
			"componentType":5126,
			"count":1013,
			"max":[
				8.791776657104492,
				5.24615478515625,
				0.5773324966430664
			],
			"min":[
				8.696308135986328,
				2.215524673461914,
				-0.8233741521835327
			],
			"type":"VEC3"
		},
		{
			"bufferView":17,
			"componentType":5126,
			"count":1013,
			"type":"VEC3"
		},
		{
			"bufferView":18,
			"componentType":5126,
			"count":1013,
			"type":"VEC2"
		},
		{
			"bufferView":19,
			"componentType":5123,
			"count":3900,
			"type":"SCALAR"
		},
		{
			"bufferView":20,
			"componentType":5126,
			"count":2522,
			"max":[
				4.146204948425293,
				13.398828506469727,
				-1.086828351020813
			],
			"min":[
				-6.018484592437744,
				3.4560353755950928,
				-1.6785967350006104
			],
			"type":"VEC3"
		},
		{
			"bufferView":21,
			"componentType":5126,
			"count":2522,
			"type":"VEC3"
		},
		{
			"bufferView":22,
			"componentType":5126,
			"count":2522,
			"type":"VEC2"
		},
		{
			"bufferView":23,
			"componentType":5123,
			"count":13824,
			"type":"SCALAR"
		},
		{
			"bufferView":24,
			"componentType":5126,
			"count":1604,
			"max":[
				4.075057029724121,
				13.325133323669434,
				-1.5685862302780151
			],
			"min":[
				-5.9393110275268555,
				3.5303502082824707,
				-2.2414846420288086
			],
			"type":"VEC3"
		},
		{
			"bufferView":25,
			"componentType":5126,
			"count":1604,
			"type":"VEC3"
		},
		{
			"bufferView":26,
			"componentType":5126,
			"count":1604,
			"type":"VEC2"
		},
		{
			"bufferView":27,
			"componentType":5123,
			"count":7344,
			"type":"SCALAR"
		},
		{
			"bufferView":28,
			"componentType":5126,
			"count":348,
			"max":[
				7.157304763793945,
				6.267951011657715,
				-1.385765790939331
			],
			"min":[
				2.1678624153137207,
				1.2785096168518066,
				-1.4146358966827393
			],
			"type":"VEC3"
		},
		{
			"bufferView":29,
			"componentType":5126,
			"count":348,
			"type":"VEC3"
		},
		{
			"bufferView":30,
			"componentType":5126,
			"count":348,
			"type":"VEC2"
		},
		{
			"bufferView":31,
			"componentType":5123,
			"count":504,
			"type":"SCALAR"
		},
		{
			"bufferView":32,
			"componentType":5126,
			"count":732,
			"max":[
				6.726321220397949,
				5.836967468261719,
				-1.385765552520752
			],
			"min":[
				2.598846435546875,
				1.709493637084961,
				-2.3772127628326416
			],
			"type":"VEC3"
		},
		{
			"bufferView":33,
			"componentType":5126,
			"count":732,
			"type":"VEC3"
		},
		{
			"bufferView":34,
			"componentType":5126,
			"count":732,
			"type":"VEC2"
		},
		{
			"bufferView":35,
			"componentType":5123,
			"count":1068,
			"type":"SCALAR"
		},
		{
			"bufferView":36,
			"componentType":5126,
			"count":255,
			"max":[
				8.771138191223145,
				13.316117286682129,
				1.1366376876831055
			],
			"min":[
				8.740778923034668,
				11.837697982788086,
				-0.5268635749816895
			],
			"type":"VEC3"
		},
		{
			"bufferView":37,
			"componentType":5126,
			"count":255,
			"type":"VEC3"
		},
		{
			"bufferView":38,
			"componentType":5126,
			"count":255,
			"type":"VEC2"
		},
		{
			"bufferView":39,
			"componentType":5123,
			"count":1032,
			"type":"SCALAR"
		}
	],
	"bufferViews":[
		{
			"buffer":0,
			"byteLength":36504,
			"byteOffset":0,
			"target":34962
		},
		{
			"buffer":0,
			"byteLength":36504,
			"byteOffset":36504,
			"target":34962
		},
		{
			"buffer":0,
			"byteLength":24336,
			"byteOffset":73008,
			"target":34962
		},
		{
			"buffer":0,
			"byteLength":32832,
			"byteOffset":97344,
			"target":34963
		},
		{
			"buffer":0,
			"byteLength":72852,
			"byteOffset":130176,
			"target":34962
		},
		{
			"buffer":0,
			"byteLength":72852,
			"byteOffset":203028,
			"target":34962
		},
		{
			"buffer":0,
			"byteLength":48568,
			"byteOffset":275880,
			"target":34962
		},
		{
			"buffer":0,
			"byteLength":65664,
			"byteOffset":324448,
			"target":34963
		},
		{
			"buffer":0,
			"byteLength":120276,
			"byteOffset":390112,
			"target":34962
		},
		{
			"buffer":0,
			"byteLength":120276,
			"byteOffset":510388,
			"target":34962
		},
		{
			"buffer":0,
			"byteLength":80184,
			"byteOffset":630664,
			"target":34962
		},
		{
			"buffer":0,
			"byteLength":110880,
			"byteOffset":710848,
			"target":34963
		},
		{
			"buffer":0,
			"byteLength":2909928,
			"byteOffset":821728,
			"target":34962
		},
		{
			"buffer":0,
			"byteLength":2909928,
			"byteOffset":3731656,
			"target":34962
		},
		{
			"buffer":0,
			"byteLength":1939952,
			"byteOffset":6641584,
			"target":34962
		},
		{
			"buffer":0,
			"byteLength":3001824,
			"byteOffset":8581536,
			"target":34963
		},
		{
			"buffer":0,
			"byteLength":12156,
			"byteOffset":11583360,
			"target":34962
		},
		{
			"buffer":0,
			"byteLength":12156,
			"byteOffset":11595516,
			"target":34962
		},
		{
			"buffer":0,
			"byteLength":8104,
			"byteOffset":11607672,
			"target":34962
		},
		{
			"buffer":0,
			"byteLength":7800,
			"byteOffset":11615776,
			"target":34963
		},
		{
			"buffer":0,
			"byteLength":30264,
			"byteOffset":11623576,
			"target":34962
		},
		{
			"buffer":0,
			"byteLength":30264,
			"byteOffset":11653840,
			"target":34962
		},
		{
			"buffer":0,
			"byteLength":20176,
			"byteOffset":11684104,
			"target":34962
		},
		{
			"buffer":0,
			"byteLength":27648,
			"byteOffset":11704280,
			"target":34963
		},
		{
			"buffer":0,
			"byteLength":19248,
			"byteOffset":11731928,
			"target":34962
		},
		{
			"buffer":0,
			"byteLength":19248,
			"byteOffset":11751176,
			"target":34962
		},
		{
			"buffer":0,
			"byteLength":12832,
			"byteOffset":11770424,
			"target":34962
		},
		{
			"buffer":0,
			"byteLength":14688,
			"byteOffset":11783256,
			"target":34963
		},
		{
			"buffer":0,
			"byteLength":4176,
			"byteOffset":11797944,
			"target":34962
		},
		{
			"buffer":0,
			"byteLength":4176,
			"byteOffset":11802120,
			"target":34962
		},
		{
			"buffer":0,
			"byteLength":2784,
			"byteOffset":11806296,
			"target":34962
		},
		{
			"buffer":0,
			"byteLength":1008,
			"byteOffset":11809080,
			"target":34963
		},
		{
			"buffer":0,
			"byteLength":8784,
			"byteOffset":11810088,
			"target":34962
		},
		{
			"buffer":0,
			"byteLength":8784,
			"byteOffset":11818872,
			"target":34962
		},
		{
			"buffer":0,
			"byteLength":5856,
			"byteOffset":11827656,
			"target":34962
		},
		{
			"buffer":0,
			"byteLength":2136,
			"byteOffset":11833512,
			"target":34963
		},
		{
			"buffer":0,
			"byteLength":3060,
			"byteOffset":11835648,
			"target":34962
		},
		{
			"buffer":0,
			"byteLength":3060,
			"byteOffset":11838708,
			"target":34962
		},
		{
			"buffer":0,
			"byteLength":2040,
			"byteOffset":11841768,
			"target":34962
		},
		{
			"buffer":0,
			"byteLength":2064,
			"byteOffset":11843808,
			"target":34963
		}
	],
	"buffers":[
		{
			"byteLength":11845872,
			"uri":"art.bin"
		}
	]
}
