{
	"asset":{
		"generator":"Khronos glTF Blender I/O v4.2.57",
		"version":"2.0"
	},
	"scene":0,
	"scenes":[
		{
			"name":"Scene",
			"nodes":[
				0
			]
		}
	],
	"nodes":[
		{
			"mesh":0,
			"name":"4",
			"rotation":[
				0,
				0.710159420967102,
				0,
				0.7040409445762634
			],
			"scale":[
				0.38680484890937805,
				0.38680484890937805,
				0.38680484890937805
			],
			"translation":[
				1.258235216140747,
				0.0592561811208725,
				0.5341882109642029
			]
		}
	],
	"materials":[
		{
			"doubleSided":true,
			"name":"HBS_0001_M1.001",
			"pbrMetallicRoughness":{
				"baseColorFactor":[
					0.10461580753326416,
					0.10461658239364624,
					0.10461653769016266,
					1
				],
				"metallicFactor":0,
				"roughnessFactor":0.4000000059604645
			}
		}
	],
	"meshes":[
		{
			"name":"HBS_0001.001",
			"primitives":[
				{
					"attributes":{
						"POSITION":0,
						"NORMAL":1,
						"TEXCOORD_0":2
					},
					"indices":3,
					"material":0
				}
			]
		}
	],
	"accessors":[
		{
			"bufferView":0,
			"componentType":5126,
			"count":149484,
			"max":[
				0.19142097234725952,
				0.8739392161369324,
				0.1866806000471115
			],
			"min":[
				-0.19142095744609833,
				0,
				-0.2422173172235489
			],
			"type":"VEC3"
		},
		{
			"bufferView":1,
			"componentType":5126,
			"count":149484,
			"type":"VEC3"
		},
		{
			"bufferView":2,
			"componentType":5126,
			"count":149484,
			"type":"VEC2"
		},
		{
			"bufferView":3,
			"componentType":5125,
			"count":775008,
			"type":"SCALAR"
		}
	],
	"bufferViews":[
		{
			"buffer":0,
			"byteLength":1793808,
			"byteOffset":0,
			"target":34962
		},
		{
			"buffer":0,
			"byteLength":1793808,
			"byteOffset":1793808,
			"target":34962
		},
		{
			"buffer":0,
			"byteLength":1195872,
			"byteOffset":3587616,
			"target":34962
		},
		{
			"buffer":0,
			"byteLength":3100032,
			"byteOffset":4783488,
			"target":34963
		}
	],
	"buffers":[
		{
			"byteLength":7883520,
			"uri":"stool3.bin"
		}
	]
}
