{
	"asset":{
		"generator":"Khronos glTF Blender I/O v4.2.57",
		"version":"2.0"
	},
	"extensionsUsed":[
		"KHR_materials_clearcoat",
		"KHR_materials_transmission"
	],
	"scene":0,
	"scenes":[
		{
			"name":"Scene",
			"nodes":[
				0,
				1,
				2,
				3,
				4,
				5
			]
		}
	],
	"nodes":[
		{
			"mesh":0,
			"name":"Cylinder.005",
			"rotation":[
				0,
				0.7328138947486877,
				0,
				0.6804291605949402
			],
			"translation":[
				-1.6296143531799316,
				0.07391738891601562,
				-1.532783031463623
			]
		},
		{
			"mesh":1,
			"name":"defaultMaterial.005",
			"rotation":[
				0,
				0.7328138947486877,
				0,
				0.6804291009902954
			],
			"scale":[
				0.05778531730175018,
				0.057785309851169586,
				0.05778531730175018
			],
			"translation":[
				-1.3058879375457764,
				0.2820032835006714,
				-2.5533556938171387
			]
		},
		{
			"mesh":2,
			"name":"Object_6.001",
			"rotation":[
				-0.5194193720817566,
				0.5169329643249512,
				-0.48228898644447327,
				0.4799804091453552
			],
			"scale":[
				0.008433249779045582,
				0.008433249779045582,
				0.008433250710368156
			],
			"translation":[
				-1.3277192115783691,
				0.2821000814437866,
				-1.5954490900039673
			]
		},
		{
			"mesh":3,
			"name":"Object_12.001",
			"rotation":[
				-0.5659881830215454,
				0.5659881830215454,
				-0.4238601624965668,
				0.4238601624965668
			],
			"scale":[
				0.008433251641690731,
				0.008433250710368156,
				0.008433250710368156
			],
			"translation":[
				-1.2502104043960571,
				0.28287822008132935,
				-1.4403045177459717
			]
		},
		{
			"mesh":4,
			"name":"Lamed Chair .011",
			"rotation":[
				0,
				-0.2803664207458496,
				0,
				0.9598930478096008
			],
			"scale":[
				0.346660315990448,
				0.346660315990448,
				0.346660315990448
			],
			"translation":[
				-1.505784511566162,
				0.05961503088474274,
				-1.7370672225952148
			]
		},
		{
			"mesh":5,
			"name":"Lamed Chair .010",
			"rotation":[
				0,
				0.9737110733985901,
				0,
				0.22778663039207458
			],
			"scale":[
				0.3466603457927704,
				0.346660315990448,
				0.3466603457927704
			],
			"translation":[
				-1.7552026510238647,
				0.05961503088474274,
				-1.3283367156982422
			]
		}
	],
	"materials":[
		{
			"doubleSided":true,
			"name":"Material.013",
			"pbrMetallicRoughness":{
				"baseColorFactor":[
					0.4451987147331238,
					0.208637073636055,
					0.06662602722644806,
					1
				],
				"metallicFactor":0,
				"roughnessFactor":0.5
			}
		},
		{
			"doubleSided":true,
			"name":"Material.016",
			"pbrMetallicRoughness":{
				"baseColorFactor":[
					0,
					0,
					0,
					1
				],
				"metallicFactor":0,
				"roughnessFactor":0.5
			}
		},
		{
			"alphaMode":"BLEND",
			"doubleSided":true,
			"extensions":{
				"KHR_materials_clearcoat":{
					"clearcoatFactor":0.26923808455467224,
					"clearcoatRoughnessFactor":0.07467223703861237
				}
			},
			"name":"vase1.004",
			"normalTexture":{
				"index":0
			},
			"pbrMetallicRoughness":{
				"baseColorTexture":{
					"index":1
				},
				"metallicRoughnessTexture":{
					"index":2
				}
			}
		},
		{
			"alphaMode":"BLEND",
			"doubleSided":true,
			"emissiveFactor":[
				1,
				1,
				1
			],
			"emissiveTexture":{
				"index":3
			},
			"name":"flower1.004",
			"normalTexture":{
				"index":4
			},
			"pbrMetallicRoughness":{
				"baseColorTexture":{
					"index":5
				},
				"metallicFactor":0,
				"metallicRoughnessTexture":{
					"index":6
				}
			}
		},
		{
			"doubleSided":true,
			"name":"Material.008",
			"pbrMetallicRoughness":{
				"baseColorFactor":[
					0.0072850799188017845,
					0.0011829700088128448,
					0.01754079945385456,
					1
				],
				"metallicFactor":0.5181819796562195,
				"metallicRoughnessTexture":{
					"index":7
				},
				"roughnessFactor":0.45164287090301514
			}
		},
		{
			"doubleSided":true,
			"name":"Material.007",
			"pbrMetallicRoughness":{
				"baseColorFactor":[
					0,
					0.22322799265384674,
					0.09758739918470383,
					1
				],
				"metallicFactor":0,
				"metallicRoughnessTexture":{
					"index":8
				}
			}
		},
		{
			"doubleSided":true,
			"name":"Material.006",
			"pbrMetallicRoughness":{
				"baseColorTexture":{
					"index":9
				},
				"metallicFactor":0,
				"metallicRoughnessTexture":{
					"index":10
				}
			}
		},
		{
			"doubleSided":true,
			"name":"Material.010",
			"pbrMetallicRoughness":{
				"baseColorFactor":[
					0.06315964460372925,
					0.0012410935014486313,
					0.004645299166440964,
					1
				],
				"metallicFactor":0,
				"roughnessFactor":0.1537143737077713
			}
		},
		{
			"alphaMode":"BLEND",
			"extensions":{
				"KHR_materials_clearcoat":{
					"clearcoatFactor":1,
					"clearcoatRoughnessFactor":0.09899281710386276
				},
				"KHR_materials_transmission":{
					"transmissionFactor":1
				}
			},
			"name":"Material.009",
			"pbrMetallicRoughness":{
				"baseColorFactor":[
					1,
					1,
					1,
					0.25
				],
				"metallicRoughnessTexture":{
					"index":11
				}
			}
		},
		{
			"doubleSided":true,
			"name":"Lamed_chair.002",
			"normalTexture":{
				"index":12
			},
			"pbrMetallicRoughness":{
				"baseColorTexture":{
					"index":13
				},
				"metallicFactor":0,
				"metallicRoughnessTexture":{
					"index":14
				}
			}
		}
	],
	"meshes":[
		{
			"name":"Cylinder.002",
			"primitives":[
				{
					"attributes":{
						"POSITION":0,
						"NORMAL":1,
						"TEXCOORD_0":2
					},
					"indices":3,
					"material":0
				},
				{
					"attributes":{
						"POSITION":4,
						"NORMAL":5,
						"TEXCOORD_0":6
					},
					"indices":7,
					"material":1
				}
			]
		},
		{
			"name":"defaultMaterial.005",
			"primitives":[
				{
					"attributes":{
						"POSITION":8,
						"NORMAL":9,
						"TEXCOORD_0":10
					},
					"indices":11,
					"material":2
				},
				{
					"attributes":{
						"POSITION":12,
						"NORMAL":13,
						"TEXCOORD_0":14
					},
					"indices":15,
					"material":3
				}
			]
		},
		{
			"name":"Object_1.001",
			"primitives":[
				{
					"attributes":{
						"POSITION":16,
						"NORMAL":17,
						"TEXCOORD_0":18,
						"TEXCOORD_1":19,
						"TEXCOORD_2":20
					},
					"indices":21,
					"material":4
				},
				{
					"attributes":{
						"POSITION":22,
						"NORMAL":23,
						"TEXCOORD_0":24,
						"TEXCOORD_1":25,
						"TEXCOORD_2":26
					},
					"indices":27,
					"material":5
				},
				{
					"attributes":{
						"POSITION":28,
						"NORMAL":29,
						"TEXCOORD_0":30,
						"TEXCOORD_1":31,
						"TEXCOORD_2":32
					},
					"indices":33,
					"material":6
				}
			]
		},
		{
			"name":"Object_4.001",
			"primitives":[
				{
					"attributes":{
						"POSITION":34,
						"NORMAL":35,
						"TEXCOORD_0":36
					},
					"indices":37,
					"material":7
				},
				{
					"attributes":{
						"POSITION":38,
						"NORMAL":39,
						"TEXCOORD_0":40
					},
					"indices":41,
					"material":8
				}
			]
		},
		{
			"name":"Lamed Chair .012",
			"primitives":[
				{
					"attributes":{
						"POSITION":42,
						"NORMAL":43,
						"TEXCOORD_0":44,
						"COLOR_0":45,
						"COLOR_1":46
					},
					"indices":47,
					"material":9
				}
			]
		},
		{
			"name":"Lamed Chair .011",
			"primitives":[
				{
					"attributes":{
						"POSITION":48,
						"NORMAL":49,
						"TEXCOORD_0":50,
						"COLOR_0":51,
						"COLOR_1":52
					},
					"indices":47,
					"material":9
				}
			]
		}
	],
	"textures":[
		{
			"sampler":0,
			"source":0
		},
		{
			"sampler":0,
			"source":1
		},
		{
			"sampler":0,
			"source":2
		},
		{
			"sampler":0,
			"source":3
		},
		{
			"sampler":0,
			"source":4
		},
		{
			"sampler":0,
			"source":5
		},
		{
			"sampler":0,
			"source":6
		},
		{
			"sampler":0,
			"source":7
		},
		{
			"sampler":0,
			"source":8
		},
		{
			"sampler":0,
			"source":9
		},
		{
			"sampler":0,
			"source":8
		},
		{
			"sampler":0,
			"source":8
		},
		{
			"sampler":0,
			"source":10
		},
		{
			"sampler":0,
			"source":11
		},
		{
			"sampler":0,
			"source":12
		}
	],
	"images":[
		{
			"mimeType":"image/png",
			"name":"Image_6",
			"uri":"Image_6.png"
		},
		{
			"mimeType":"image/png",
			"name":"Image_4",
			"uri":"Image_4.png"
		},
		{
			"mimeType":"image/png",
			"name":"Image_5",
			"uri":"Image_5.png"
		},
		{
			"mimeType":"image/jpeg",
			"name":"Image_9",
			"uri":"Image_9.jpg"
		},
		{
			"mimeType":"image/png",
			"name":"Image_10",
			"uri":"Image_10.png"
		},
		{
			"mimeType":"image/png",
			"name":"Image_7",
			"uri":"Image_7.png"
		},
		{
			"mimeType":"image/png",
			"name":"Image_8",
			"uri":"Image_8.png"
		},
		{
			"mimeType":"image/png",
			"name":"Image_1-1",
			"uri":"Image_1-1.png"
		},
		{
			"mimeType":"image/png",
			"name":"Image_0",
			"uri":"Image_0.png"
		},
		{
			"mimeType":"image/png",
			"name":"Image_2",
			"uri":"Image_2.png"
		},
		{
			"mimeType":"image/jpeg",
			"name":"Wood051_2K-JPG_NormalGL",
			"uri":"Wood051_2K-JPG_NormalGL.jpg"
		},
		{
			"mimeType":"image/jpeg",
			"name":"Wood051_2K-JPG_Color",
			"uri":"Wood051_2K-JPG_Color.jpg"
		},
		{
			"mimeType":"image/png",
			"name":"Wood051_2K-JPG_Roughness",
			"uri":"Wood051_2K-JPG_Roughness.png"
		}
	],
	"accessors":[
		{
			"bufferView":0,
			"componentType":5126,
			"count":1404,
			"max":[
				0.20342695713043213,
				0.2078978419303894,
				0.20580720901489258
			],
			"min":[
				-0.2045137882232666,
				0.19887681305408478,
				-0.20213353633880615
			],
			"type":"VEC3"
		},
		{
			"bufferView":1,
			"componentType":5126,
			"count":1404,
			"type":"VEC3"
		},
		{
			"bufferView":2,
			"componentType":5126,
			"count":1404,
			"type":"VEC2"
		},
		{
			"bufferView":3,
			"componentType":5123,
			"count":2010,
			"type":"SCALAR"
		},
		{
			"bufferView":4,
			"componentType":5126,
			"count":1852,
			"max":[
				0.0685771107673645,
				0.19887681305408478,
				0.07095736265182495
			],
			"min":[
				-0.06966394186019897,
				-0.0151992691680789,
				-0.0672837495803833
			],
			"type":"VEC3"
		},
		{
			"bufferView":5,
			"componentType":5126,
			"count":1852,
			"type":"VEC3"
		},
		{
			"bufferView":6,
			"componentType":5126,
			"count":1852,
			"type":"VEC2"
		},
		{
			"bufferView":7,
			"componentType":5123,
			"count":2586,
			"type":"SCALAR"
		},
		{
			"bufferView":8,
			"componentType":5126,
			"count":1467,
			"max":[
				-16.801664352416992,
				1.8164721727371216,
				-6.437655448913574
			],
			"min":[
				-17.753530502319336,
				0.05366611108183861,
				-7.38913106918335
			],
			"type":"VEC3"
		},
		{
			"bufferView":9,
			"componentType":5126,
			"count":1467,
			"type":"VEC3"
		},
		{
			"bufferView":10,
			"componentType":5126,
			"count":1467,
			"type":"VEC2"
		},
		{
			"bufferView":11,
			"componentType":5123,
			"count":6168,
			"type":"SCALAR"
		},
		{
			"bufferView":12,
			"componentType":5126,
			"count":3638,
			"max":[
				-16.856351852416992,
				2.974900007247925,
				-6.172857284545898
			],
			"min":[
				-17.645849227905273,
				0.4537111222743988,
				-7.5641703605651855
			],
			"type":"VEC3"
		},
		{
			"bufferView":13,
			"componentType":5126,
			"count":3638,
			"type":"VEC3"
		},
		{
			"bufferView":14,
			"componentType":5126,
			"count":3638,
			"type":"VEC2"
		},
		{
			"bufferView":15,
			"componentType":5123,
			"count":17859,
			"type":"SCALAR"
		},
		{
			"bufferView":16,
			"componentType":5126,
			"count":414,
			"max":[
				0.033897388726472855,
				2.168044328689575,
				-45.095863342285156
			],
			"min":[
				-14.888201713562012,
				-2.087798833847046,
				-49.3359489440918
			],
			"type":"VEC3"
		},
		{
			"bufferView":17,
			"componentType":5126,
			"count":414,
			"type":"VEC3"
		},
		{
			"bufferView":18,
			"componentType":5126,
			"count":414,
			"type":"VEC2"
		},
		{
			"bufferView":19,
			"componentType":5126,
			"count":414,
			"type":"VEC2"
		},
		{
			"bufferView":20,
			"componentType":5126,
			"count":414,
			"type":"VEC2"
		},
		{
			"bufferView":21,
			"componentType":5123,
			"count":1680,
			"type":"SCALAR"
		},
		{
			"bufferView":22,
			"componentType":5126,
			"count":701,
			"max":[
				-14.579192161560059,
				0.9105918407440186,
				-46.300559997558594
			],
			"min":[
				-18.369731903076172,
				-0.9591150879859924,
				-48.1702880859375
			],
			"type":"VEC3"
		},
		{
			"bufferView":23,
			"componentType":5126,
			"count":701,
			"type":"VEC3"
		},
		{
			"bufferView":24,
			"componentType":5126,
			"count":701,
			"type":"VEC2"
		},
		{
			"bufferView":25,
			"componentType":5126,
			"count":701,
			"type":"VEC2"
		},
		{
			"bufferView":26,
			"componentType":5126,
			"count":701,
			"type":"VEC2"
		},
		{
			"bufferView":27,
			"componentType":5123,
			"count":3120,
			"type":"SCALAR"
		},
		{
			"bufferView":28,
			"componentType":5126,
			"count":48,
			"max":[
				-3.5745134353637695,
				2.1955649852752686,
				-47.53887939453125
			],
			"min":[
				-10.779906272888184,
				-1.818086862564087,
				-49.386287689208984
			],
			"type":"VEC3"
		},
		{
			"bufferView":29,
			"componentType":5126,
			"count":48,
			"type":"VEC3"
		},
		{
			"bufferView":30,
			"componentType":5126,
			"count":48,
			"type":"VEC2"
		},
		{
			"bufferView":31,
			"componentType":5126,
			"count":48,
			"type":"VEC2"
		},
		{
			"bufferView":32,
			"componentType":5126,
			"count":48,
			"type":"VEC2"
		},
		{
			"bufferView":33,
			"componentType":5123,
			"count":180,
			"type":"SCALAR"
		},
		{
			"bufferView":34,
			"componentType":5126,
			"count":854,
			"max":[
				-6.160499572753906,
				36.88477325439453,
				-25.32243537902832
			],
			"min":[
				-8.982272148132324,
				7.591086387634277,
				-48.67325210571289
			],
			"type":"VEC3"
		},
		{
			"bufferView":35,
			"componentType":5126,
			"count":854,
			"type":"VEC3"
		},
		{
			"bufferView":36,
			"componentType":5126,
			"count":854,
			"type":"VEC2"
		},
		{
			"bufferView":37,
			"componentType":5123,
			"count":3354,
			"type":"SCALAR"
		},
		{
			"bufferView":38,
			"componentType":5126,
			"count":2411,
			"max":[
				-0.0013742198934778571,
				36.95729064941406,
				-25.24993133544922
			],
			"min":[
				-11.136417388916016,
				7.518575668334961,
				-48.74577331542969
			],
			"type":"VEC3"
		},
		{
			"bufferView":39,
			"componentType":5126,
			"count":2411,
			"type":"VEC3"
		},
		{
			"bufferView":40,
			"componentType":5126,
			"count":2411,
			"type":"VEC2"
		},
		{
			"bufferView":41,
			"componentType":5123,
			"count":9423,
			"type":"SCALAR"
		},
		{
			"bufferView":42,
			"componentType":5126,
			"count":9067,
			"max":[
				0.2898827791213989,
				0.7956703901290894,
				0.14889991283416748
			],
			"min":[
				-0.29672467708587646,
				-8.940696716308594e-08,
				-0.2584632337093353
			],
			"type":"VEC3"
		},
		{
			"bufferView":43,
			"componentType":5126,
			"count":9067,
			"type":"VEC3"
		},
		{
			"bufferView":44,
			"componentType":5126,
			"count":9067,
			"type":"VEC2"
		},
		{
			"bufferView":45,
			"componentType":5126,
			"count":9067,
			"type":"VEC3"
		},
		{
			"bufferView":46,
			"componentType":5126,
			"count":9067,
			"type":"VEC3"
		},
		{
			"bufferView":47,
			"componentType":5123,
			"count":49440,
			"type":"SCALAR"
		},
		{
			"bufferView":48,
			"componentType":5126,
			"count":9067,
			"max":[
				0.2898827791213989,
				0.7956703901290894,
				0.14889991283416748
			],
			"min":[
				-0.29672467708587646,
				-8.940696716308594e-08,
				-0.2584632337093353
			],
			"type":"VEC3"
		},
		{
			"bufferView":49,
			"componentType":5126,
			"count":9067,
			"type":"VEC3"
		},
		{
			"bufferView":50,
			"componentType":5126,
			"count":9067,
			"type":"VEC2"
		},
		{
			"bufferView":51,
			"componentType":5126,
			"count":9067,
			"type":"VEC3"
		},
		{
			"bufferView":52,
			"componentType":5126,
			"count":9067,
			"type":"VEC3"
		}
	],
	"bufferViews":[
		{
			"buffer":0,
			"byteLength":16848,
			"byteOffset":0,
			"target":34962
		},
		{
			"buffer":0,
			"byteLength":16848,
			"byteOffset":16848,
			"target":34962
		},
		{
			"buffer":0,
			"byteLength":11232,
			"byteOffset":33696,
			"target":34962
		},
		{
			"buffer":0,
			"byteLength":4020,
			"byteOffset":44928,
			"target":34963
		},
		{
			"buffer":0,
			"byteLength":22224,
			"byteOffset":48948,
			"target":34962
		},
		{
			"buffer":0,
			"byteLength":22224,
			"byteOffset":71172,
			"target":34962
		},
		{
			"buffer":0,
			"byteLength":14816,
			"byteOffset":93396,
			"target":34962
		},
		{
			"buffer":0,
			"byteLength":5172,
			"byteOffset":108212,
			"target":34963
		},
		{
			"buffer":0,
			"byteLength":17604,
			"byteOffset":113384,
			"target":34962
		},
		{
			"buffer":0,
			"byteLength":17604,
			"byteOffset":130988,
			"target":34962
		},
		{
			"buffer":0,
			"byteLength":11736,
			"byteOffset":148592,
			"target":34962
		},
		{
			"buffer":0,
			"byteLength":12336,
			"byteOffset":160328,
			"target":34963
		},
		{
			"buffer":0,
			"byteLength":43656,
			"byteOffset":172664,
			"target":34962
		},
		{
			"buffer":0,
			"byteLength":43656,
			"byteOffset":216320,
			"target":34962
		},
		{
			"buffer":0,
			"byteLength":29104,
			"byteOffset":259976,
			"target":34962
		},
		{
			"buffer":0,
			"byteLength":35718,
			"byteOffset":289080,
			"target":34963
		},
		{
			"buffer":0,
			"byteLength":4968,
			"byteOffset":324800,
			"target":34962
		},
		{
			"buffer":0,
			"byteLength":4968,
			"byteOffset":329768,
			"target":34962
		},
		{
			"buffer":0,
			"byteLength":3312,
			"byteOffset":334736,
			"target":34962
		},
		{
			"buffer":0,
			"byteLength":3312,
			"byteOffset":338048,
			"target":34962
		},
		{
			"buffer":0,
			"byteLength":3312,
			"byteOffset":341360,
			"target":34962
		},
		{
			"buffer":0,
			"byteLength":3360,
			"byteOffset":344672,
			"target":34963
		},
		{
			"buffer":0,
			"byteLength":8412,
			"byteOffset":348032,
			"target":34962
		},
		{
			"buffer":0,
			"byteLength":8412,
			"byteOffset":356444,
			"target":34962
		},
		{
			"buffer":0,
			"byteLength":5608,
			"byteOffset":364856,
			"target":34962
		},
		{
			"buffer":0,
			"byteLength":5608,
			"byteOffset":370464,
			"target":34962
		},
		{
			"buffer":0,
			"byteLength":5608,
			"byteOffset":376072,
			"target":34962
		},
		{
			"buffer":0,
			"byteLength":6240,
			"byteOffset":381680,
			"target":34963
		},
		{
			"buffer":0,
			"byteLength":576,
			"byteOffset":387920,
			"target":34962
		},
		{
			"buffer":0,
			"byteLength":576,
			"byteOffset":388496,
			"target":34962
		},
		{
			"buffer":0,
			"byteLength":384,
			"byteOffset":389072,
			"target":34962
		},
		{
			"buffer":0,
			"byteLength":384,
			"byteOffset":389456,
			"target":34962
		},
		{
			"buffer":0,
			"byteLength":384,
			"byteOffset":389840,
			"target":34962
		},
		{
			"buffer":0,
			"byteLength":360,
			"byteOffset":390224,
			"target":34963
		},
		{
			"buffer":0,
			"byteLength":10248,
			"byteOffset":390584,
			"target":34962
		},
		{
			"buffer":0,
			"byteLength":10248,
			"byteOffset":400832,
			"target":34962
		},
		{
			"buffer":0,
			"byteLength":6832,
			"byteOffset":411080,
			"target":34962
		},
		{
			"buffer":0,
			"byteLength":6708,
			"byteOffset":417912,
			"target":34963
		},
		{
			"buffer":0,
			"byteLength":28932,
			"byteOffset":424620,
			"target":34962
		},
		{
			"buffer":0,
			"byteLength":28932,
			"byteOffset":453552,
			"target":34962
		},
		{
			"buffer":0,
			"byteLength":19288,
			"byteOffset":482484,
			"target":34962
		},
		{
			"buffer":0,
			"byteLength":18846,
			"byteOffset":501772,
			"target":34963
		},
		{
			"buffer":0,
			"byteLength":108804,
			"byteOffset":520620,
			"target":34962
		},
		{
			"buffer":0,
			"byteLength":108804,
			"byteOffset":629424,
			"target":34962
		},
		{
			"buffer":0,
			"byteLength":72536,
			"byteOffset":738228,
			"target":34962
		},
		{
			"buffer":0,
			"byteLength":108804,
			"byteOffset":810764,
			"target":34962
		},
		{
			"buffer":0,
			"byteLength":108804,
			"byteOffset":919568,
			"target":34962
		},
		{
			"buffer":0,
			"byteLength":98880,
			"byteOffset":1028372,
			"target":34963
		},
		{
			"buffer":0,
			"byteLength":108804,
			"byteOffset":1127252,
			"target":34962
		},
		{
			"buffer":0,
			"byteLength":108804,
			"byteOffset":1236056,
			"target":34962
		},
		{
			"buffer":0,
			"byteLength":72536,
			"byteOffset":1344860,
			"target":34962
		},
		{
			"buffer":0,
			"byteLength":108804,
			"byteOffset":1417396,
			"target":34962
		},
		{
			"buffer":0,
			"byteLength":108804,
			"byteOffset":1526200,
			"target":34962
		}
	],
	"samplers":[
		{
			"magFilter":9729,
			"minFilter":9987
		}
	],
	"buffers":[
		{
			"byteLength":1635004,
			"uri":"2table1.bin"
		}
	]
}
