{
	"asset":{
		"generator":"Khronos glTF Blender I/O v4.2.57",
		"version":"2.0"
	},
	"extensionsUsed":[
		"KHR_materials_emissive_strength"
	],
	"scene":0,
	"scenes":[
		{
			"name":"Scene",
			"nodes":[
				0,
				1,
				2,
				3,
				4,
				5,
				6,
				7,
				8,
				9,
				10,
				11
			]
		}
	],
	"nodes":[
		{
			"mesh":0,
			"name":"Cube.001",
			"rotation":[
				0,
				1,
				0,
				0.00025068598915822804
			],
			"translation":[
				0.9715848565101624,
				0.35058343410491943,
				1.157375454902649
			]
		},
		{
			"mesh":1,
			"name":"Cube.008",
			"rotation":[
				0,
				1,
				0,
				0.00025068598915822804
			],
			"translation":[
				0.9715848565101624,
				0.35058343410491943,
				1.157375454902649
			]
		},
		{
			"mesh":2,
			"name":"Cube.010",
			"rotation":[
				0,
				1,
				0,
				0.00025068598915822804
			],
			"translation":[
				0.9715848565101624,
				0.5388315916061401,
				1.157375454902649
			]
		},
		{
			"mesh":3,
			"name":"glass down",
			"rotation":[
				-0.00017726043006405234,
				0.7071065902709961,
				0.70710688829422,
				0.00017725673387758434
			],
			"scale":[
				0.00023730033717583865,
				0.00023730033717583865,
				0.00023730033717583865
			],
			"translation":[
				1.084535837173462,
				0.28573083877563477,
				1.8004508018493652
			]
		},
		{
			"mesh":4,
			"name":"glass down.001",
			"rotation":[
				-0.00017726043006405234,
				0.7071065902709961,
				0.70710688829422,
				0.00017725673387758434
			],
			"scale":[
				0.00023730033717583865,
				0.00023730033717583865,
				0.00023730033717583865
			],
			"translation":[
				1.145310878753662,
				0.28573083877563477,
				1.8004812002182007
			]
		},
		{
			"mesh":5,
			"name":"glass up",
			"rotation":[
				0.7071068286895752,
				-0.00017723436758387834,
				0.00017725674842949957,
				0.7071066498756409
			],
			"scale":[
				0.00023730033717583865,
				0.00023730033717583865,
				0.00023730033717583865
			],
			"translation":[
				0.8073109984397888,
				0.7277482748031616,
				1.3473610877990723
			]
		},
		{
			"mesh":6,
			"name":"glass up.001",
			"rotation":[
				0.7071068286895752,
				-0.00017723436758387834,
				0.00017725674842949957,
				0.7071066498756409
			],
			"scale":[
				0.00023730033717583865,
				0.00023730033717583865,
				0.00023730033717583865
			],
			"translation":[
				0.8070738911628723,
				0.7277482748031616,
				1.8203502893447876
			]
		},
		{
			"mesh":7,
			"name":"glass up.002",
			"rotation":[
				0.7071068286895752,
				-0.00017723436758387834,
				0.00017725674842949957,
				0.7071066498756409
			],
			"scale":[
				0.00023730033717583865,
				0.00023730033717583865,
				0.00023730033717583865
			],
			"translation":[
				0.8077197670936584,
				0.7277482748031616,
				0.5321808457374573
			]
		},
		{
			"mesh":8,
			"name":"Object017_etiketks_0",
			"rotation":[
				0.27043426036834717,
				-0.6533493399620056,
				0.6533493399620056,
				0.27043429017066956
			],
			"scale":[
				-0.00040364195592701435,
				-0.00040364195592701435,
				-0.0004036419850308448
			],
			"translation":[
				0.9142928719520569,
				0.663960337638855,
				0.4259890019893646
			]
		},
		{
			"mesh":9,
			"name":"Object022_glass_0",
			"rotation":[
				0.00017725673387758434,
				0.7071065902709961,
				-0.70710688829422,
				0.00017725677753333002
			],
			"scale":[
				-0.00022430956596508622,
				-0.00022430958051700145,
				-0.00022430958051700145
			],
			"translation":[
				1.1087992191314697,
				0.5156427025794983,
				1.3710308074951172
			]
		},
		{
			"mesh":10,
			"name":"Object023_glass_0",
			"rotation":[
				-0.00017725674842949957,
				0.70710688829422,
				0.7071065902709961,
				0.00017726043006405234
			],
			"scale":[
				-0.0002243096096208319,
				-0.00022430956596508622,
				-0.00022430956596508622
			],
			"translation":[
				0.8117433190345764,
				0.6636170744895935,
				0.9444235563278198
			]
		},
		{
			"mesh":11,
			"name":"Object026_glass_0",
			"rotation":[
				0.00017725673387758434,
				0.7071065902709961,
				-0.70710688829422,
				0.00017725677753333002
			],
			"scale":[
				-0.00022430956596508622,
				-0.00022430958051700145,
				-0.00022430958051700145
			],
			"translation":[
				0.9424892067909241,
				0.6645753979682922,
				0.7136204242706299
			]
		}
	],
	"materials":[
		{
			"doubleSided":true,
			"name":"Material.119",
			"pbrMetallicRoughness":{
				"baseColorFactor":[
					0,
					0,
					0,
					1
				],
				"metallicFactor":0,
				"roughnessFactor":0.5
			}
		},
		{
			"doubleSided":true,
			"name":"Material.120",
			"pbrMetallicRoughness":{
				"baseColorFactor":[
					0.2469586431980133,
					0.09858928620815277,
					0.046940140426158905,
					1
				],
				"metallicFactor":0,
				"roughnessFactor":0.5
			}
		},
		{
			"doubleSided":true,
			"emissiveFactor":[
				1,
				1,
				1
			],
			"extensions":{
				"KHR_materials_emissive_strength":{
					"emissiveStrength":10
				}
			},
			"name":"Material.121",
			"pbrMetallicRoughness":{
				"baseColorFactor":[
					0,
					0,
					0,
					1
				]
			}
		},
		{
			"alphaMode":"BLEND",
			"doubleSided":true,
			"name":"glass.003",
			"normalTexture":{
				"index":0
			},
			"pbrMetallicRoughness":{
				"baseColorTexture":{
					"index":1
				},
				"metallicRoughnessTexture":{
					"index":2
				}
			}
		},
		{
			"alphaMode":"BLEND",
			"doubleSided":true,
			"name":"etiketks.003",
			"normalTexture":{
				"index":3
			},
			"pbrMetallicRoughness":{
				"baseColorTexture":{
					"index":4
				},
				"metallicRoughnessTexture":{
					"index":5
				}
			}
		},
		{
			"alphaMode":"BLEND",
			"doubleSided":true,
			"name":"glassbilel.003",
			"pbrMetallicRoughness":{
				"baseColorTexture":{
					"index":6
				},
				"metallicRoughnessTexture":{
					"index":7
				}
			}
		},
		{
			"doubleSided":true,
			"name":"kriwki.003",
			"normalTexture":{
				"index":8
			},
			"pbrMetallicRoughness":{
				"baseColorTexture":{
					"index":9
				},
				"metallicRoughnessTexture":{
					"index":10
				}
			}
		}
	],
	"meshes":[
		{
			"name":"Cube.004",
			"primitives":[
				{
					"attributes":{
						"POSITION":0,
						"NORMAL":1,
						"TEXCOORD_0":2
					},
					"indices":3,
					"material":0
				}
			]
		},
		{
			"name":"Cube.001",
			"primitives":[
				{
					"attributes":{
						"POSITION":4,
						"NORMAL":5,
						"TEXCOORD_0":6
					},
					"indices":7,
					"material":1
				}
			]
		},
		{
			"name":"Cube.017",
			"primitives":[
				{
					"attributes":{
						"POSITION":8,
						"NORMAL":9,
						"TEXCOORD_0":10
					},
					"indices":11,
					"material":2
				}
			]
		},
		{
			"name":"Cylinder013_glass_0",
			"primitives":[
				{
					"attributes":{
						"POSITION":12,
						"NORMAL":13,
						"TEXCOORD_0":14
					},
					"indices":15,
					"material":3
				}
			]
		},
		{
			"name":"Cylinder013_glass_0.001",
			"primitives":[
				{
					"attributes":{
						"POSITION":16,
						"NORMAL":17,
						"TEXCOORD_0":18
					},
					"indices":15,
					"material":3
				}
			]
		},
		{
			"name":"Cylinder017_glass_0",
			"primitives":[
				{
					"attributes":{
						"POSITION":19,
						"NORMAL":20,
						"TEXCOORD_0":21
					},
					"indices":15,
					"material":3
				}
			]
		},
		{
			"name":"Cylinder017_glass_0.001",
			"primitives":[
				{
					"attributes":{
						"POSITION":22,
						"NORMAL":23,
						"TEXCOORD_0":24
					},
					"indices":15,
					"material":3
				}
			]
		},
		{
			"name":"Cylinder017_glass_0.002",
			"primitives":[
				{
					"attributes":{
						"POSITION":25,
						"NORMAL":26,
						"TEXCOORD_0":27
					},
					"indices":15,
					"material":3
				}
			]
		},
		{
			"name":"Object017_etiketks_0",
			"primitives":[
				{
					"attributes":{
						"POSITION":28,
						"NORMAL":29,
						"TEXCOORD_0":30
					},
					"indices":31,
					"material":4
				},
				{
					"attributes":{
						"POSITION":32,
						"NORMAL":33,
						"TEXCOORD_0":34
					},
					"indices":35,
					"material":5
				},
				{
					"attributes":{
						"POSITION":36,
						"NORMAL":37,
						"TEXCOORD_0":38
					},
					"indices":39,
					"material":6
				}
			]
		},
		{
			"name":"Object022_glass_0",
			"primitives":[
				{
					"attributes":{
						"POSITION":40,
						"NORMAL":41,
						"TEXCOORD_0":42
					},
					"indices":43,
					"material":3
				}
			]
		},
		{
			"name":"Object023_glass_0",
			"primitives":[
				{
					"attributes":{
						"POSITION":44,
						"NORMAL":45,
						"TEXCOORD_0":46
					},
					"indices":47,
					"material":3
				}
			]
		},
		{
			"name":"Object026_glass_0",
			"primitives":[
				{
					"attributes":{
						"POSITION":48,
						"NORMAL":49,
						"TEXCOORD_0":50
					},
					"indices":51,
					"material":3
				}
			]
		}
	],
	"textures":[
		{
			"sampler":0,
			"source":0
		},
		{
			"sampler":0,
			"source":1
		},
		{
			"sampler":0,
			"source":2
		},
		{
			"sampler":0,
			"source":3
		},
		{
			"sampler":0,
			"source":4
		},
		{
			"sampler":0,
			"source":5
		},
		{
			"sampler":0,
			"source":6
		},
		{
			"sampler":0,
			"source":7
		},
		{
			"sampler":0,
			"source":8
		},
		{
			"sampler":0,
			"source":9
		},
		{
			"sampler":0,
			"source":10
		}
	],
	"images":[
		{
			"mimeType":"image/png",
			"name":"Image_5",
			"uri":"Image_5.png"
		},
		{
			"mimeType":"image/png",
			"name":"Image_3",
			"uri":"Image_3.png"
		},
		{
			"mimeType":"image/png",
			"name":"Image_4",
			"uri":"Image_4.png"
		},
		{
			"mimeType":"image/png",
			"name":"Image_10",
			"uri":"Image_10.png"
		},
		{
			"mimeType":"image/png",
			"name":"Image_8",
			"uri":"Image_8.png"
		},
		{
			"mimeType":"image/png",
			"name":"Image_9",
			"uri":"Image_9.png"
		},
		{
			"mimeType":"image/png",
			"name":"Image_6",
			"uri":"Image_6.png"
		},
		{
			"mimeType":"image/png",
			"name":"Image_7",
			"uri":"Image_7.png"
		},
		{
			"mimeType":"image/png",
			"name":"Image_13",
			"uri":"Image_13.png"
		},
		{
			"mimeType":"image/jpeg",
			"name":"Image_11",
			"uri":"Image_11.jpg"
		},
		{
			"mimeType":"image/png",
			"name":"Image_12",
			"uri":"Image_12.png"
		}
	],
	"accessors":[
		{
			"bufferView":0,
			"componentType":5126,
			"count":678,
			"max":[
				-0.1565031111240387,
				0.29343146085739136,
				0.843704342842102
			],
			"min":[
				-0.610078752040863,
				-0.2946414053440094,
				-0.8433036804199219
			],
			"type":"VEC3"
		},
		{
			"bufferView":1,
			"componentType":5126,
			"count":678,
			"type":"VEC3"
		},
		{
			"bufferView":2,
			"componentType":5126,
			"count":678,
			"type":"VEC2"
		},
		{
			"bufferView":3,
			"componentType":5123,
			"count":1716,
			"type":"SCALAR"
		},
		{
			"bufferView":4,
			"componentType":5126,
			"count":1180,
			"max":[
				-0.13150310516357422,
				0.3133120536804199,
				0.8687043786048889
			],
			"min":[
				-0.4216992259025574,
				0.2922391891479492,
				-0.8683037161827087
			],
			"type":"VEC3"
		},
		{
			"bufferView":5,
			"componentType":5126,
			"count":1180,
			"type":"VEC3"
		},
		{
			"bufferView":6,
			"componentType":5126,
			"count":1180,
			"type":"VEC2"
		},
		{
			"bufferView":7,
			"componentType":5123,
			"count":1764,
			"type":"SCALAR"
		},
		{
			"bufferView":8,
			"componentType":5126,
			"count":738,
			"max":[
				-0.15241526067256927,
				0.10371056199073792,
				0.8478397130966187
			],
			"min":[
				-0.5602070093154907,
				-0.3410041034221649,
				-0.8474390506744385
			],
			"type":"VEC3"
		},
		{
			"bufferView":9,
			"componentType":5126,
			"count":738,
			"type":"VEC3"
		},
		{
			"bufferView":10,
			"componentType":5126,
			"count":738,
			"type":"VEC2"
		},
		{
			"bufferView":11,
			"componentType":5123,
			"count":1056,
			"type":"SCALAR"
		},
		{
			"bufferView":12,
			"componentType":5126,
			"count":315,
			"max":[
				-1587.148193359375,
				94.19627380371094,
				264.6978759765625
			],
			"min":[
				-1774.34130859375,
				-95.88452911376953,
				-1.7673431634902954
			],
			"type":"VEC3"
		},
		{
			"bufferView":13,
			"componentType":5126,
			"count":315,
			"type":"VEC3"
		},
		{
			"bufferView":14,
			"componentType":5126,
			"count":315,
			"type":"VEC2"
		},
		{
			"bufferView":15,
			"componentType":5123,
			"count":1176,
			"type":"SCALAR"
		},
		{
			"bufferView":16,
			"componentType":5126,
			"count":315,
			"max":[
				-1587.148193359375,
				94.19627380371094,
				264.6978759765625
			],
			"min":[
				-1774.34130859375,
				-95.88452911376953,
				-1.7673431634902954
			],
			"type":"VEC3"
		},
		{
			"bufferView":17,
			"componentType":5126,
			"count":315,
			"type":"VEC3"
		},
		{
			"bufferView":18,
			"componentType":5126,
			"count":315,
			"type":"VEC2"
		},
		{
			"bufferView":19,
			"componentType":5126,
			"count":315,
			"max":[
				1780.161376953125,
				94.19633483886719,
				264.69793701171875
			],
			"min":[
				1592.96826171875,
				-95.88446807861328,
				-1.7672805786132812
			],
			"type":"VEC3"
		},
		{
			"bufferView":20,
			"componentType":5126,
			"count":315,
			"type":"VEC3"
		},
		{
			"bufferView":21,
			"componentType":5126,
			"count":315,
			"type":"VEC2"
		},
		{
			"bufferView":22,
			"componentType":5126,
			"count":315,
			"max":[
				1780.161376953125,
				94.19633483886719,
				264.69793701171875
			],
			"min":[
				1592.96826171875,
				-95.88446807861328,
				-1.7672805786132812
			],
			"type":"VEC3"
		},
		{
			"bufferView":23,
			"componentType":5126,
			"count":315,
			"type":"VEC3"
		},
		{
			"bufferView":24,
			"componentType":5126,
			"count":315,
			"type":"VEC2"
		},
		{
			"bufferView":25,
			"componentType":5126,
			"count":315,
			"max":[
				1780.161376953125,
				94.19633483886719,
				264.69793701171875
			],
			"min":[
				1592.96826171875,
				-95.88446807861328,
				-1.7672805786132812
			],
			"type":"VEC3"
		},
		{
			"bufferView":26,
			"componentType":5126,
			"count":315,
			"type":"VEC3"
		},
		{
			"bufferView":27,
			"componentType":5126,
			"count":315,
			"type":"VEC2"
		},
		{
			"bufferView":28,
			"componentType":5126,
			"count":12,
			"max":[
				772.1668701171875,
				758.6403198242188,
				222.76791381835938
			],
			"min":[
				619.7139282226562,
				640.4143676757812,
				31.41537094116211
			],
			"type":"VEC3"
		},
		{
			"bufferView":29,
			"componentType":5126,
			"count":12,
			"type":"VEC3"
		},
		{
			"bufferView":30,
			"componentType":5126,
			"count":12,
			"type":"VEC2"
		},
		{
			"bufferView":31,
			"componentType":5123,
			"count":24,
			"type":"SCALAR"
		},
		{
			"bufferView":32,
			"componentType":5126,
			"count":1678,
			"max":[
				773.8070068359375,
				777.8651733398438,
				404.9754943847656
			],
			"min":[
				617.894287109375,
				621.9524536132812,
				0.12735000252723694
			],
			"type":"VEC3"
		},
		{
			"bufferView":33,
			"componentType":5126,
			"count":1678,
			"type":"VEC3"
		},
		{
			"bufferView":34,
			"componentType":5126,
			"count":1678,
			"type":"VEC2"
		},
		{
			"bufferView":35,
			"componentType":5123,
			"count":6636,
			"type":"SCALAR"
		},
		{
			"bufferView":36,
			"componentType":5126,
			"count":427,
			"max":[
				722.3856811523438,
				726.6411743164062,
				424.6506652832031
			],
			"min":[
				669.1590576171875,
				673.4144897460938,
				364.8355712890625
			],
			"type":"VEC3"
		},
		{
			"bufferView":37,
			"componentType":5126,
			"count":427,
			"type":"VEC3"
		},
		{
			"bufferView":38,
			"componentType":5126,
			"count":427,
			"type":"VEC2"
		},
		{
			"bufferView":39,
			"componentType":5123,
			"count":1104,
			"type":"SCALAR"
		},
		{
			"bufferView":40,
			"componentType":5126,
			"count":384,
			"max":[
				1960.7808837890625,
				115.97614288330078,
				481.6313781738281
			],
			"min":[
				1721.26318359375,
				-119.90276336669922,
				-4.3153533935546875
			],
			"type":"VEC3"
		},
		{
			"bufferView":41,
			"componentType":5126,
			"count":384,
			"type":"VEC3"
		},
		{
			"bufferView":42,
			"componentType":5126,
			"count":384,
			"type":"VEC2"
		},
		{
			"bufferView":43,
			"componentType":5123,
			"count":1176,
			"type":"SCALAR"
		},
		{
			"bufferView":44,
			"componentType":5126,
			"count":754,
			"max":[
				2000.2384033203125,
				136.3968048095703,
				-1.6130465269088745
			],
			"min":[
				1728.734619140625,
				-135.10691833496094,
				-331.00384521484375
			],
			"type":"VEC3"
		},
		{
			"bufferView":45,
			"componentType":5126,
			"count":754,
			"type":"VEC3"
		},
		{
			"bufferView":46,
			"componentType":5126,
			"count":754,
			"type":"VEC2"
		},
		{
			"bufferView":47,
			"componentType":5123,
			"count":2472,
			"type":"SCALAR"
		},
		{
			"bufferView":48,
			"componentType":5126,
			"count":502,
			"max":[
				1932.887939453125,
				70.40314483642578,
				338.98541259765625
			],
			"min":[
				1788.0941162109375,
				-72.19097137451172,
				-7.6451568603515625
			],
			"type":"VEC3"
		},
		{
			"bufferView":49,
			"componentType":5126,
			"count":502,
			"type":"VEC3"
		},
		{
			"bufferView":50,
			"componentType":5126,
			"count":502,
			"type":"VEC2"
		},
		{
			"bufferView":51,
			"componentType":5123,
			"count":960,
			"type":"SCALAR"
		}
	],
	"bufferViews":[
		{
			"buffer":0,
			"byteLength":8136,
			"byteOffset":0,
			"target":34962
		},
		{
			"buffer":0,
			"byteLength":8136,
			"byteOffset":8136,
			"target":34962
		},
		{
			"buffer":0,
			"byteLength":5424,
			"byteOffset":16272,
			"target":34962
		},
		{
			"buffer":0,
			"byteLength":3432,
			"byteOffset":21696,
			"target":34963
		},
		{
			"buffer":0,
			"byteLength":14160,
			"byteOffset":25128,
			"target":34962
		},
		{
			"buffer":0,
			"byteLength":14160,
			"byteOffset":39288,
			"target":34962
		},
		{
			"buffer":0,
			"byteLength":9440,
			"byteOffset":53448,
			"target":34962
		},
		{
			"buffer":0,
			"byteLength":3528,
			"byteOffset":62888,
			"target":34963
		},
		{
			"buffer":0,
			"byteLength":8856,
			"byteOffset":66416,
			"target":34962
		},
		{
			"buffer":0,
			"byteLength":8856,
			"byteOffset":75272,
			"target":34962
		},
		{
			"buffer":0,
			"byteLength":5904,
			"byteOffset":84128,
			"target":34962
		},
		{
			"buffer":0,
			"byteLength":2112,
			"byteOffset":90032,
			"target":34963
		},
		{
			"buffer":0,
			"byteLength":3780,
			"byteOffset":92144,
			"target":34962
		},
		{
			"buffer":0,
			"byteLength":3780,
			"byteOffset":95924,
			"target":34962
		},
		{
			"buffer":0,
			"byteLength":2520,
			"byteOffset":99704,
			"target":34962
		},
		{
			"buffer":0,
			"byteLength":2352,
			"byteOffset":102224,
			"target":34963
		},
		{
			"buffer":0,
			"byteLength":3780,
			"byteOffset":104576,
			"target":34962
		},
		{
			"buffer":0,
			"byteLength":3780,
			"byteOffset":108356,
			"target":34962
		},
		{
			"buffer":0,
			"byteLength":2520,
			"byteOffset":112136,
			"target":34962
		},
		{
			"buffer":0,
			"byteLength":3780,
			"byteOffset":114656,
			"target":34962
		},
		{
			"buffer":0,
			"byteLength":3780,
			"byteOffset":118436,
			"target":34962
		},
		{
			"buffer":0,
			"byteLength":2520,
			"byteOffset":122216,
			"target":34962
		},
		{
			"buffer":0,
			"byteLength":3780,
			"byteOffset":124736,
			"target":34962
		},
		{
			"buffer":0,
			"byteLength":3780,
			"byteOffset":128516,
			"target":34962
		},
		{
			"buffer":0,
			"byteLength":2520,
			"byteOffset":132296,
			"target":34962
		},
		{
			"buffer":0,
			"byteLength":3780,
			"byteOffset":134816,
			"target":34962
		},
		{
			"buffer":0,
			"byteLength":3780,
			"byteOffset":138596,
			"target":34962
		},
		{
			"buffer":0,
			"byteLength":2520,
			"byteOffset":142376,
			"target":34962
		},
		{
			"buffer":0,
			"byteLength":144,
			"byteOffset":144896,
			"target":34962
		},
		{
			"buffer":0,
			"byteLength":144,
			"byteOffset":145040,
			"target":34962
		},
		{
			"buffer":0,
			"byteLength":96,
			"byteOffset":145184,
			"target":34962
		},
		{
			"buffer":0,
			"byteLength":48,
			"byteOffset":145280,
			"target":34963
		},
		{
			"buffer":0,
			"byteLength":20136,
			"byteOffset":145328,
			"target":34962
		},
		{
			"buffer":0,
			"byteLength":20136,
			"byteOffset":165464,
			"target":34962
		},
		{
			"buffer":0,
			"byteLength":13424,
			"byteOffset":185600,
			"target":34962
		},
		{
			"buffer":0,
			"byteLength":13272,
			"byteOffset":199024,
			"target":34963
		},
		{
			"buffer":0,
			"byteLength":5124,
			"byteOffset":212296,
			"target":34962
		},
		{
			"buffer":0,
			"byteLength":5124,
			"byteOffset":217420,
			"target":34962
		},
		{
			"buffer":0,
			"byteLength":3416,
			"byteOffset":222544,
			"target":34962
		},
		{
			"buffer":0,
			"byteLength":2208,
			"byteOffset":225960,
			"target":34963
		},
		{
			"buffer":0,
			"byteLength":4608,
			"byteOffset":228168,
			"target":34962
		},
		{
			"buffer":0,
			"byteLength":4608,
			"byteOffset":232776,
			"target":34962
		},
		{
			"buffer":0,
			"byteLength":3072,
			"byteOffset":237384,
			"target":34962
		},
		{
			"buffer":0,
			"byteLength":2352,
			"byteOffset":240456,
			"target":34963
		},
		{
			"buffer":0,
			"byteLength":9048,
			"byteOffset":242808,
			"target":34962
		},
		{
			"buffer":0,
			"byteLength":9048,
			"byteOffset":251856,
			"target":34962
		},
		{
			"buffer":0,
			"byteLength":6032,
			"byteOffset":260904,
			"target":34962
		},
		{
			"buffer":0,
			"byteLength":4944,
			"byteOffset":266936,
			"target":34963
		},
		{
			"buffer":0,
			"byteLength":6024,
			"byteOffset":271880,
			"target":34962
		},
		{
			"buffer":0,
			"byteLength":6024,
			"byteOffset":277904,
			"target":34962
		},
		{
			"buffer":0,
			"byteLength":4016,
			"byteOffset":283928,
			"target":34962
		},
		{
			"buffer":0,
			"byteLength":1920,
			"byteOffset":287944,
			"target":34963
		}
	],
	"samplers":[
		{
			"magFilter":9729,
			"minFilter":9987
		}
	],
	"buffers":[
		{
			"byteLength":289864,
			"uri":"counter.bin"
		}
	]
}
