{
	"asset":{
		"generator":"Khronos glTF Blender I/O v4.2.57",
		"version":"2.0"
	},
	"extensionsUsed":[
		"KHR_materials_emissive_strength"
	],
	"scene":0,
	"scenes":[
		{
			"name":"Scene",
			"nodes":[
				0
			]
		}
	],
	"nodes":[
		{
			"mesh":0,
			"name":"counter",
			"rotation":[
				0.00017725673387758434,
				0.7071065902709961,
				-0.70710688829422,
				0.00017725674842949957
			],
			"scale":[
				-0.00029757944867014885,
				-0.0002975794777739793,
				-0.00029757944867014885
			],
			"translation":[
				1.9871259927749634,
				0.6680818200111389,
				0.27666789293289185
			]
		}
	],
	"materials":[
		{
			"alphaMode":"BLEND",
			"doubleSided":true,
			"name":"etiketks.003",
			"normalTexture":{
				"index":0
			},
			"pbrMetallicRoughness":{
				"baseColorTexture":{
					"index":1
				},
				"metallicRoughnessTexture":{
					"index":2
				}
			}
		},
		{
			"alphaMode":"BLEND",
			"doubleSided":true,
			"name":"glassbilel.003",
			"pbrMetallicRoughness":{
				"baseColorTexture":{
					"index":3
				},
				"metallicRoughnessTexture":{
					"index":4
				}
			}
		},
		{
			"doubleSided":true,
			"name":"kriwki.003",
			"normalTexture":{
				"index":5
			},
			"pbrMetallicRoughness":{
				"baseColorTexture":{
					"index":6
				},
				"metallicRoughnessTexture":{
					"index":7
				}
			}
		},
		{
			"alphaMode":"BLEND",
			"doubleSided":true,
			"name":"glass.003",
			"normalTexture":{
				"index":8
			},
			"pbrMetallicRoughness":{
				"baseColorTexture":{
					"index":9
				},
				"metallicRoughnessTexture":{
					"index":10
				}
			}
		},
		{
			"doubleSided":true,
			"name":"Material.070",
			"pbrMetallicRoughness":{
				"baseColorFactor":[
					0.031017879024147987,
					0.018544409424066544,
					0.012929924763739109,
					1
				],
				"metallicFactor":0,
				"roughnessFactor":0.5
			}
		},
		{
			"doubleSided":true,
			"emissiveFactor":[
				1,
				1,
				1
			],
			"extensions":{
				"KHR_materials_emissive_strength":{
					"emissiveStrength":3
				}
			},
			"name":"Material.115",
			"pbrMetallicRoughness":{
				"baseColorFactor":[
					0,
					0,
					0,
					1
				]
			}
		},
		{
			"doubleSided":true,
			"name":"Material.122",
			"pbrMetallicRoughness":{
				"baseColorFactor":[
					0,
					0,
					0,
					1
				],
				"metallicFactor":0,
				"roughnessFactor":0.5
			}
		}
	],
	"meshes":[
		{
			"name":"Object016_etiketks_0.002",
			"primitives":[
				{
					"attributes":{
						"POSITION":0,
						"NORMAL":1,
						"TEXCOORD_0":2
					},
					"indices":3,
					"material":0
				},
				{
					"attributes":{
						"POSITION":4,
						"NORMAL":5,
						"TEXCOORD_0":6
					},
					"indices":7,
					"material":1
				},
				{
					"attributes":{
						"POSITION":8,
						"NORMAL":9,
						"TEXCOORD_0":10
					},
					"indices":11,
					"material":2
				},
				{
					"attributes":{
						"POSITION":12,
						"NORMAL":13,
						"TEXCOORD_0":14
					},
					"indices":15,
					"material":3
				},
				{
					"attributes":{
						"POSITION":16,
						"NORMAL":17,
						"TEXCOORD_0":18
					},
					"indices":19,
					"material":4
				},
				{
					"attributes":{
						"POSITION":20,
						"NORMAL":21,
						"TEXCOORD_0":22
					},
					"indices":23,
					"material":5
				},
				{
					"attributes":{
						"POSITION":24,
						"NORMAL":25,
						"TEXCOORD_0":26
					},
					"indices":27,
					"material":6
				}
			]
		}
	],
	"textures":[
		{
			"sampler":0,
			"source":0
		},
		{
			"sampler":0,
			"source":1
		},
		{
			"sampler":0,
			"source":2
		},
		{
			"sampler":0,
			"source":3
		},
		{
			"sampler":0,
			"source":4
		},
		{
			"sampler":0,
			"source":5
		},
		{
			"sampler":0,
			"source":6
		},
		{
			"sampler":0,
			"source":7
		},
		{
			"sampler":0,
			"source":8
		},
		{
			"sampler":0,
			"source":9
		},
		{
			"sampler":0,
			"source":10
		}
	],
	"images":[
		{
			"mimeType":"image/png",
			"name":"Image_10",
			"uri":"Image_10.png"
		},
		{
			"mimeType":"image/png",
			"name":"Image_8",
			"uri":"Image_8.png"
		},
		{
			"mimeType":"image/png",
			"name":"Image_9",
			"uri":"Image_9.png"
		},
		{
			"mimeType":"image/png",
			"name":"Image_6",
			"uri":"Image_6.png"
		},
		{
			"mimeType":"image/png",
			"name":"Image_7",
			"uri":"Image_7.png"
		},
		{
			"mimeType":"image/png",
			"name":"Image_13",
			"uri":"Image_13.png"
		},
		{
			"mimeType":"image/jpeg",
			"name":"Image_11",
			"uri":"Image_11.jpg"
		},
		{
			"mimeType":"image/png",
			"name":"Image_12",
			"uri":"Image_12.png"
		},
		{
			"mimeType":"image/png",
			"name":"Image_5",
			"uri":"Image_5.png"
		},
		{
			"mimeType":"image/png",
			"name":"Image_3",
			"uri":"Image_3.png"
		},
		{
			"mimeType":"image/png",
			"name":"Image_4",
			"uri":"Image_4.png"
		}
	],
	"accessors":[
		{
			"bufferView":0,
			"componentType":5126,
			"count":284,
			"max":[
				72.69808959960938,
				456.5437927246094,
				405.0254211425781
			],
			"min":[
				-1488.29638671875,
				-541.940673828125,
				-1067.5521240234375
			],
			"type":"VEC3"
		},
		{
			"bufferView":1,
			"componentType":5126,
			"count":284,
			"type":"VEC3"
		},
		{
			"bufferView":2,
			"componentType":5126,
			"count":284,
			"type":"VEC2"
		},
		{
			"bufferView":3,
			"componentType":5123,
			"count":720,
			"type":"SCALAR"
		},
		{
			"bufferView":4,
			"componentType":5126,
			"count":16421,
			"max":[
				74.48898315429688,
				466.3081970214844,
				581.5520629882812
			],
			"min":[
				-1495.423095703125,
				-549.4796142578125,
				-1098.840087890625
			],
			"type":"VEC3"
		},
		{
			"bufferView":5,
			"componentType":5126,
			"count":16421,
			"type":"VEC3"
		},
		{
			"bufferView":6,
			"componentType":5126,
			"count":16421,
			"type":"VEC2"
		},
		{
			"bufferView":7,
			"componentType":5123,
			"count":63486,
			"type":"SCALAR"
		},
		{
			"bufferView":8,
			"componentType":5126,
			"count":5253,
			"max":[
				23.13614845275879,
				417.8048400878906,
				612.536865234375
			],
			"min":[
				-1418.97509765625,
				-472.9208068847656,
				-734.1318359375
			],
			"type":"VEC3"
		},
		{
			"bufferView":9,
			"componentType":5126,
			"count":5253,
			"type":"VEC3"
		},
		{
			"bufferView":10,
			"componentType":5126,
			"count":5253,
			"type":"VEC2"
		},
		{
			"bufferView":11,
			"componentType":5123,
			"count":14988,
			"type":"SCALAR"
		},
		{
			"bufferView":12,
			"componentType":5126,
			"count":367,
			"max":[
				-1323.7801513671875,
				3098.692138671875,
				-771.9293823242188
			],
			"min":[
				-2008.6221923828125,
				-400.4050598144531,
				-1100.0047607421875
			],
			"type":"VEC3"
		},
		{
			"bufferView":13,
			"componentType":5126,
			"count":367,
			"type":"VEC3"
		},
		{
			"bufferView":14,
			"componentType":5126,
			"count":367,
			"type":"VEC2"
		},
		{
			"bufferView":15,
			"componentType":5123,
			"count":549,
			"type":"SCALAR"
		},
		{
			"bufferView":16,
			"componentType":5126,
			"count":36,
			"max":[
				-1204.138916015625,
				3321.0361328125,
				-887.3610229492188
			],
			"min":[
				-2043.500732421875,
				-894.3974609375,
				-2052.6162109375
			],
			"type":"VEC3"
		},
		{
			"bufferView":17,
			"componentType":5126,
			"count":36,
			"type":"VEC3"
		},
		{
			"bufferView":18,
			"componentType":5126,
			"count":36,
			"type":"VEC2"
		},
		{
			"bufferView":19,
			"componentType":5123,
			"count":60,
			"type":"SCALAR"
		},
		{
			"bufferView":20,
			"componentType":5126,
			"count":138,
			"max":[
				224.064208984375,
				565.1724853515625,
				668.5738525390625
			],
			"min":[
				195.8994140625,
				-536.0556640625,
				-546.641845703125
			],
			"type":"VEC3"
		},
		{
			"bufferView":21,
			"componentType":5126,
			"count":138,
			"type":"VEC3"
		},
		{
			"bufferView":22,
			"componentType":5126,
			"count":138,
			"type":"VEC2"
		},
		{
			"bufferView":23,
			"componentType":5123,
			"count":312,
			"type":"SCALAR"
		},
		{
			"bufferView":24,
			"componentType":5126,
			"count":100,
			"max":[
				221.40203857421875,
				570.4566040039062,
				120.6688232421875
			],
			"min":[
				-246.754638671875,
				-535.0742797851562,
				-650.7124633789062
			],
			"type":"VEC3"
		},
		{
			"bufferView":25,
			"componentType":5126,
			"count":100,
			"type":"VEC3"
		},
		{
			"bufferView":26,
			"componentType":5126,
			"count":100,
			"type":"VEC2"
		},
		{
			"bufferView":27,
			"componentType":5123,
			"count":204,
			"type":"SCALAR"
		}
	],
	"bufferViews":[
		{
			"buffer":0,
			"byteLength":3408,
			"byteOffset":0,
			"target":34962
		},
		{
			"buffer":0,
			"byteLength":3408,
			"byteOffset":3408,
			"target":34962
		},
		{
			"buffer":0,
			"byteLength":2272,
			"byteOffset":6816,
			"target":34962
		},
		{
			"buffer":0,
			"byteLength":1440,
			"byteOffset":9088,
			"target":34963
		},
		{
			"buffer":0,
			"byteLength":197052,
			"byteOffset":10528,
			"target":34962
		},
		{
			"buffer":0,
			"byteLength":197052,
			"byteOffset":207580,
			"target":34962
		},
		{
			"buffer":0,
			"byteLength":131368,
			"byteOffset":404632,
			"target":34962
		},
		{
			"buffer":0,
			"byteLength":126972,
			"byteOffset":536000,
			"target":34963
		},
		{
			"buffer":0,
			"byteLength":63036,
			"byteOffset":662972,
			"target":34962
		},
		{
			"buffer":0,
			"byteLength":63036,
			"byteOffset":726008,
			"target":34962
		},
		{
			"buffer":0,
			"byteLength":42024,
			"byteOffset":789044,
			"target":34962
		},
		{
			"buffer":0,
			"byteLength":29976,
			"byteOffset":831068,
			"target":34963
		},
		{
			"buffer":0,
			"byteLength":4404,
			"byteOffset":861044,
			"target":34962
		},
		{
			"buffer":0,
			"byteLength":4404,
			"byteOffset":865448,
			"target":34962
		},
		{
			"buffer":0,
			"byteLength":2936,
			"byteOffset":869852,
			"target":34962
		},
		{
			"buffer":0,
			"byteLength":1098,
			"byteOffset":872788,
			"target":34963
		},
		{
			"buffer":0,
			"byteLength":432,
			"byteOffset":873888,
			"target":34962
		},
		{
			"buffer":0,
			"byteLength":432,
			"byteOffset":874320,
			"target":34962
		},
		{
			"buffer":0,
			"byteLength":288,
			"byteOffset":874752,
			"target":34962
		},
		{
			"buffer":0,
			"byteLength":120,
			"byteOffset":875040,
			"target":34963
		},
		{
			"buffer":0,
			"byteLength":1656,
			"byteOffset":875160,
			"target":34962
		},
		{
			"buffer":0,
			"byteLength":1656,
			"byteOffset":876816,
			"target":34962
		},
		{
			"buffer":0,
			"byteLength":1104,
			"byteOffset":878472,
			"target":34962
		},
		{
			"buffer":0,
			"byteLength":624,
			"byteOffset":879576,
			"target":34963
		},
		{
			"buffer":0,
			"byteLength":1200,
			"byteOffset":880200,
			"target":34962
		},
		{
			"buffer":0,
			"byteLength":1200,
			"byteOffset":881400,
			"target":34962
		},
		{
			"buffer":0,
			"byteLength":800,
			"byteOffset":882600,
			"target":34962
		},
		{
			"buffer":0,
			"byteLength":408,
			"byteOffset":883400,
			"target":34963
		}
	],
	"samplers":[
		{
			"magFilter":9729,
			"minFilter":9987
		}
	],
	"buffers":[
		{
			"byteLength":883808,
			"uri":"counter.bin"
		}
	]
}
