{
	"asset":{
		"generator":"Khronos glTF Blender I/O v4.2.57",
		"version":"2.0"
	},
	"extensionsUsed":[
		"KHR_materials_emissive_strength",
		"KHR_materials_specular"
	],
	"scene":0,
	"scenes":[
		{
			"name":"Scene",
			"nodes":[
				0
			]
		}
	],
	"nodes":[
		{
			"mesh":0,
			"name":"stage",
			"rotation":[
				0.38728001713752747,
				0.5922551155090332,
				-0.5916200280189514,
				0.3863079249858856
			],
			"scale":[
				0.005219561047852039,
				0.005219561047852039,
				0.005219561047852039
			],
			"translation":[
				-1.1683385372161865,
				0.5535247921943665,
				1.225386142730713
			]
		}
	],
	"materials":[
		{
			"doubleSided":true,
			"name":"212.001",
			"pbrMetallicRoughness":{
				"baseColorFactor":[
					0,
					0,
					0,
					1
				],
				"metallicFactor":0,
				"roughnessFactor":0.5
			}
		},
		{
			"doubleSided":true,
			"name":"Material.149",
			"pbrMetallicRoughness":{
				"baseColorFactor":[
					0.800000011920929,
					0.800000011920929,
					0.800000011920929,
					1
				],
				"roughnessFactor":0.20000000298023224
			}
		},
		{
			"doubleSided":true,
			"name":"Material.150",
			"pbrMetallicRoughness":{
				"baseColorFactor":[
					0.800000011920929,
					0.800000011920929,
					0.800000011920929,
					1
				],
				"roughnessFactor":0.20000000298023224
			}
		},
		{
			"doubleSided":true,
			"extensions":{
				"KHR_materials_specular":{
					"specularFactor":0
				}
			},
			"name":"Piano_surface.001",
			"pbrMetallicRoughness":{
				"baseColorFactor":[
					0.010378928855061531,
					0.010378928855061531,
					0.010378928855061531,
					1
				],
				"metallicFactor":0
			}
		},
		{
			"doubleSided":true,
			"extensions":{
				"KHR_materials_specular":{
					"specularFactor":0
				}
			},
			"name":"Piano_keys_white.001",
			"pbrMetallicRoughness":{
				"baseColorFactor":[
					0.800000011920929,
					0.800000011920929,
					0.800000011920929,
					1
				],
				"metallicFactor":0
			}
		},
		{
			"doubleSided":true,
			"extensions":{
				"KHR_materials_specular":{
					"specularFactor":0
				}
			},
			"name":"Piano_keys_black.001",
			"pbrMetallicRoughness":{
				"baseColorFactor":[
					0.011301618069410324,
					0.011301618069410324,
					0.011301618069410324,
					1
				],
				"metallicFactor":0
			}
		},
		{
			"doubleSided":true,
			"extensions":{
				"KHR_materials_specular":{
					"specularFactor":0
				}
			},
			"name":"Piano_leg_stands.001",
			"pbrMetallicRoughness":{
				"baseColorFactor":[
					0.015460202470421791,
					0.015460202470421791,
					0.015460202470421791,
					1
				],
				"metallicFactor":0
			}
		},
		{
			"doubleSided":true,
			"extensions":{
				"KHR_materials_specular":{
					"specularFactor":0
				}
			},
			"name":"Piano_gold.001",
			"pbrMetallicRoughness":{
				"baseColorFactor":[
					0.29519522190093994,
					0.22948360443115234,
					0.01928303949534893,
					1
				],
				"metallicFactor":0
			}
		},
		{
			"doubleSided":true,
			"emissiveFactor":[
				1,
				0.02955676056444645,
				0
			],
			"extensions":{
				"KHR_materials_emissive_strength":{
					"emissiveStrength":10
				}
			},
			"name":"Material.133",
			"pbrMetallicRoughness":{
				"baseColorFactor":[
					0,
					0,
					0,
					1
				]
			}
		},
		{
			"doubleSided":true,
			"name":"Material.132",
			"pbrMetallicRoughness":{
				"baseColorFactor":[
					0.057968854904174805,
					0.016149694100022316,
					0.006585894152522087,
					1
				],
				"metallicFactor":0,
				"roughnessFactor":0.5
			}
		},
		{
			"doubleSided":true,
			"name":"Material.001",
			"pbrMetallicRoughness":{
				"baseColorFactor":[
					0.11601316183805466,
					0.05348020792007446,
					0.024481363594532013,
					1
				],
				"metallicFactor":0,
				"roughnessFactor":0.5
			}
		}
	],
	"meshes":[
		{
			"name":"Object009",
			"primitives":[
				{
					"attributes":{
						"POSITION":0,
						"NORMAL":1,
						"TEXCOORD_0":2
					},
					"indices":3,
					"material":0
				},
				{
					"attributes":{
						"POSITION":4,
						"NORMAL":5,
						"TEXCOORD_0":6
					},
					"indices":7,
					"material":1
				},
				{
					"attributes":{
						"POSITION":8,
						"NORMAL":9,
						"TEXCOORD_0":10
					},
					"indices":11,
					"material":2
				},
				{
					"attributes":{
						"POSITION":12,
						"NORMAL":13,
						"TEXCOORD_0":14
					},
					"indices":15,
					"material":3
				},
				{
					"attributes":{
						"POSITION":16,
						"NORMAL":17,
						"TEXCOORD_0":18
					},
					"indices":19,
					"material":4
				},
				{
					"attributes":{
						"POSITION":20,
						"NORMAL":21,
						"TEXCOORD_0":22
					},
					"indices":23,
					"material":5
				},
				{
					"attributes":{
						"POSITION":24,
						"NORMAL":25,
						"TEXCOORD_0":26
					},
					"indices":27,
					"material":6
				},
				{
					"attributes":{
						"POSITION":28,
						"NORMAL":29,
						"TEXCOORD_0":30
					},
					"indices":31,
					"material":7
				},
				{
					"attributes":{
						"POSITION":32,
						"NORMAL":33,
						"TEXCOORD_0":34
					},
					"indices":35,
					"material":8
				},
				{
					"attributes":{
						"POSITION":36,
						"NORMAL":37,
						"TEXCOORD_0":38
					},
					"indices":39,
					"material":9
				},
				{
					"attributes":{
						"POSITION":40,
						"NORMAL":41,
						"TEXCOORD_0":42
					},
					"indices":43,
					"material":10
				}
			]
		}
	],
	"accessors":[
		{
			"bufferView":0,
			"componentType":5126,
			"count":23436,
			"max":[
				0.44469404220581055,
				10.131752014160156,
				85.01821899414062
			],
			"min":[
				-146.78636169433594,
				-60.95909118652344,
				-4.346607685089111
			],
			"type":"VEC3"
		},
		{
			"bufferView":1,
			"componentType":5126,
			"count":23436,
			"type":"VEC3"
		},
		{
			"bufferView":2,
			"componentType":5126,
			"count":23436,
			"type":"VEC2"
		},
		{
			"bufferView":3,
			"componentType":5123,
			"count":117822,
			"type":"SCALAR"
		},
		{
			"bufferView":4,
			"componentType":5126,
			"count":116120,
			"max":[
				-0.9979475736618042,
				-2.56854248046875,
				-0.23594965040683746
			],
			"min":[
				-5.396969795227051,
				-7.206062316894531,
				-4.7812371253967285
			],
			"type":"VEC3"
		},
		{
			"bufferView":5,
			"componentType":5126,
			"count":116120,
			"type":"VEC3"
		},
		{
			"bufferView":6,
			"componentType":5126,
			"count":116120,
			"type":"VEC2"
		},
		{
			"bufferView":7,
			"componentType":5125,
			"count":133704,
			"type":"SCALAR"
		},
		{
			"bufferView":8,
			"componentType":5126,
			"count":3534,
			"max":[
				10.549182891845703,
				13.44744873046875,
				84.17665100097656
			],
			"min":[
				-15.329014778137207,
				-12.402328491210938,
				5.415597438812256
			],
			"type":"VEC3"
		},
		{
			"bufferView":9,
			"componentType":5126,
			"count":3534,
			"type":"VEC3"
		},
		{
			"bufferView":10,
			"componentType":5126,
			"count":3534,
			"type":"VEC2"
		},
		{
			"bufferView":11,
			"componentType":5123,
			"count":18594,
			"type":"SCALAR"
		},
		{
			"bufferView":12,
			"componentType":5126,
			"count":668,
			"max":[
				-63.362091064453125,
				-2.400707244873047,
				84.02001190185547
			],
			"min":[
				-114.87965393066406,
				-99.98408508300781,
				26.263084411621094
			],
			"type":"VEC3"
		},
		{
			"bufferView":13,
			"componentType":5126,
			"count":668,
			"type":"VEC3"
		},
		{
			"bufferView":14,
			"componentType":5126,
			"count":668,
			"type":"VEC2"
		},
		{
			"bufferView":15,
			"componentType":5123,
			"count":1398,
			"type":"SCALAR"
		},
		{
			"bufferView":16,
			"componentType":5126,
			"count":7818,
			"max":[
				-98.25480651855469,
				-14.972766876220703,
				47.19166564941406
			],
			"min":[
				-113.31829833984375,
				-93.46365356445312,
				45.71745300292969
			],
			"type":"VEC3"
		},
		{
			"bufferView":17,
			"componentType":5126,
			"count":7818,
			"type":"VEC3"
		},
		{
			"bufferView":18,
			"componentType":5126,
			"count":7818,
			"type":"VEC2"
		},
		{
			"bufferView":19,
			"componentType":5123,
			"count":9180,
			"type":"SCALAR"
		},
		{
			"bufferView":20,
			"componentType":5126,
			"count":9507,
			"max":[
				-67.72863006591797,
				-7.871166229248047,
				84.45731353759766
			],
			"min":[
				-112.20735931396484,
				-96.39349365234375,
				45.35181427001953
			],
			"type":"VEC3"
		},
		{
			"bufferView":21,
			"componentType":5126,
			"count":9507,
			"type":"VEC3"
		},
		{
			"bufferView":22,
			"componentType":5126,
			"count":9507,
			"type":"VEC2"
		},
		{
			"bufferView":23,
			"componentType":5123,
			"count":12744,
			"type":"SCALAR"
		},
		{
			"bufferView":24,
			"componentType":5126,
			"count":1037,
			"max":[
				-66.08415222167969,
				-6.226020812988281,
				85.056640625
			],
			"min":[
				-113.85209655761719,
				-98.03800201416016,
				84.35357666015625
			],
			"type":"VEC3"
		},
		{
			"bufferView":25,
			"componentType":5126,
			"count":1037,
			"type":"VEC3"
		},
		{
			"bufferView":26,
			"componentType":5126,
			"count":1037,
			"type":"VEC2"
		},
		{
			"bufferView":27,
			"componentType":5123,
			"count":1752,
			"type":"SCALAR"
		},
		{
			"bufferView":28,
			"componentType":5126,
			"count":15536,
			"max":[
				-95.01292419433594,
				-43.36382293701172,
				83.6734390258789
			],
			"min":[
				-104.65797424316406,
				-62.91557312011719,
				42.28787612915039
			],
			"type":"VEC3"
		},
		{
			"bufferView":29,
			"componentType":5126,
			"count":15536,
			"type":"VEC3"
		},
		{
			"bufferView":30,
			"componentType":5126,
			"count":15536,
			"type":"VEC2"
		},
		{
			"bufferView":31,
			"componentType":5123,
			"count":18504,
			"type":"SCALAR"
		},
		{
			"bufferView":32,
			"componentType":5126,
			"count":320,
			"max":[
				65.50482177734375,
				-63.78006362915039,
				86.1800537109375
			],
			"min":[
				-148.4067840576172,
				-194.72862243652344,
				-91.53959655761719
			],
			"type":"VEC3"
		},
		{
			"bufferView":33,
			"componentType":5126,
			"count":320,
			"type":"VEC3"
		},
		{
			"bufferView":34,
			"componentType":5126,
			"count":320,
			"type":"VEC2"
		},
		{
			"bufferView":35,
			"componentType":5123,
			"count":480,
			"type":"SCALAR"
		},
		{
			"bufferView":36,
			"componentType":5126,
			"count":120,
			"max":[
				67.1251220703125,
				-63.851768493652344,
				85.47407531738281
			],
			"min":[
				-151.49559020996094,
				-197.67843627929688,
				-91.02146911621094
			],
			"type":"VEC3"
		},
		{
			"bufferView":37,
			"componentType":5126,
			"count":120,
			"type":"VEC3"
		},
		{
			"bufferView":38,
			"componentType":5126,
			"count":120,
			"type":"VEC2"
		},
		{
			"bufferView":39,
			"componentType":5123,
			"count":180,
			"type":"SCALAR"
		},
		{
			"bufferView":40,
			"componentType":5126,
			"count":30,
			"max":[
				142.70936584472656,
				69.72427368164062,
				95.54539489746094
			],
			"min":[
				-184.5913848876953,
				-221.44357299804688,
				85.05976867675781
			],
			"type":"VEC3"
		},
		{
			"bufferView":41,
			"componentType":5126,
			"count":30,
			"type":"VEC3"
		},
		{
			"bufferView":42,
			"componentType":5126,
			"count":30,
			"type":"VEC2"
		},
		{
			"bufferView":43,
			"componentType":5123,
			"count":48,
			"type":"SCALAR"
		}
	],
	"bufferViews":[
		{
			"buffer":0,
			"byteLength":281232,
			"byteOffset":0,
			"target":34962
		},
		{
			"buffer":0,
			"byteLength":281232,
			"byteOffset":281232,
			"target":34962
		},
		{
			"buffer":0,
			"byteLength":187488,
			"byteOffset":562464,
			"target":34962
		},
		{
			"buffer":0,
			"byteLength":235644,
			"byteOffset":749952,
			"target":34963
		},
		{
			"buffer":0,
			"byteLength":1393440,
			"byteOffset":985596,
			"target":34962
		},
		{
			"buffer":0,
			"byteLength":1393440,
			"byteOffset":2379036,
			"target":34962
		},
		{
			"buffer":0,
			"byteLength":928960,
			"byteOffset":3772476,
			"target":34962
		},
		{
			"buffer":0,
			"byteLength":534816,
			"byteOffset":4701436,
			"target":34963
		},
		{
			"buffer":0,
			"byteLength":42408,
			"byteOffset":5236252,
			"target":34962
		},
		{
			"buffer":0,
			"byteLength":42408,
			"byteOffset":5278660,
			"target":34962
		},
		{
			"buffer":0,
			"byteLength":28272,
			"byteOffset":5321068,
			"target":34962
		},
		{
			"buffer":0,
			"byteLength":37188,
			"byteOffset":5349340,
			"target":34963
		},
		{
			"buffer":0,
			"byteLength":8016,
			"byteOffset":5386528,
			"target":34962
		},
		{
			"buffer":0,
			"byteLength":8016,
			"byteOffset":5394544,
			"target":34962
		},
		{
			"buffer":0,
			"byteLength":5344,
			"byteOffset":5402560,
			"target":34962
		},
		{
			"buffer":0,
			"byteLength":2796,
			"byteOffset":5407904,
			"target":34963
		},
		{
			"buffer":0,
			"byteLength":93816,
			"byteOffset":5410700,
			"target":34962
		},
		{
			"buffer":0,
			"byteLength":93816,
			"byteOffset":5504516,
			"target":34962
		},
		{
			"buffer":0,
			"byteLength":62544,
			"byteOffset":5598332,
			"target":34962
		},
		{
			"buffer":0,
			"byteLength":18360,
			"byteOffset":5660876,
			"target":34963
		},
		{
			"buffer":0,
			"byteLength":114084,
			"byteOffset":5679236,
			"target":34962
		},
		{
			"buffer":0,
			"byteLength":114084,
			"byteOffset":5793320,
			"target":34962
		},
		{
			"buffer":0,
			"byteLength":76056,
			"byteOffset":5907404,
			"target":34962
		},
		{
			"buffer":0,
			"byteLength":25488,
			"byteOffset":5983460,
			"target":34963
		},
		{
			"buffer":0,
			"byteLength":12444,
			"byteOffset":6008948,
			"target":34962
		},
		{
			"buffer":0,
			"byteLength":12444,
			"byteOffset":6021392,
			"target":34962
		},
		{
			"buffer":0,
			"byteLength":8296,
			"byteOffset":6033836,
			"target":34962
		},
		{
			"buffer":0,
			"byteLength":3504,
			"byteOffset":6042132,
			"target":34963
		},
		{
			"buffer":0,
			"byteLength":186432,
			"byteOffset":6045636,
			"target":34962
		},
		{
			"buffer":0,
			"byteLength":186432,
			"byteOffset":6232068,
			"target":34962
		},
		{
			"buffer":0,
			"byteLength":124288,
			"byteOffset":6418500,
			"target":34962
		},
		{
			"buffer":0,
			"byteLength":37008,
			"byteOffset":6542788,
			"target":34963
		},
		{
			"buffer":0,
			"byteLength":3840,
			"byteOffset":6579796,
			"target":34962
		},
		{
			"buffer":0,
			"byteLength":3840,
			"byteOffset":6583636,
			"target":34962
		},
		{
			"buffer":0,
			"byteLength":2560,
			"byteOffset":6587476,
			"target":34962
		},
		{
			"buffer":0,
			"byteLength":960,
			"byteOffset":6590036,
			"target":34963
		},
		{
			"buffer":0,
			"byteLength":1440,
			"byteOffset":6590996,
			"target":34962
		},
		{
			"buffer":0,
			"byteLength":1440,
			"byteOffset":6592436,
			"target":34962
		},
		{
			"buffer":0,
			"byteLength":960,
			"byteOffset":6593876,
			"target":34962
		},
		{
			"buffer":0,
			"byteLength":360,
			"byteOffset":6594836,
			"target":34963
		},
		{
			"buffer":0,
			"byteLength":360,
			"byteOffset":6595196,
			"target":34962
		},
		{
			"buffer":0,
			"byteLength":360,
			"byteOffset":6595556,
			"target":34962
		},
		{
			"buffer":0,
			"byteLength":240,
			"byteOffset":6595916,
			"target":34962
		},
		{
			"buffer":0,
			"byteLength":96,
			"byteOffset":6596156,
			"target":34963
		}
	],
	"buffers":[
		{
			"byteLength":6596252,
			"uri":"stage.bin"
		}
	]
}
