{
	"asset":{
		"generator":"Khronos glTF Blender I/O v4.2.57",
		"version":"2.0"
	},
	"extensionsUsed":[
		"KHR_materials_clearcoat",
		"KHR_materials_specular",
		"KHR_materials_ior"
	],
	"scene":0,
	"scenes":[
		{
			"name":"Scene",
			"nodes":[
				0
			]
		}
	],
	"nodes":[
		{
			"mesh":0,
			"name":"4table",
			"rotation":[
				0.2633260488510132,
				0.6562464237213135,
				-0.6562464833259583,
				0.26332607865333557
			],
			"scale":[
				0.5471788048744202,
				0.5471788644790649,
				0.5471788048744202
			],
			"translation":[
				-0.4526498317718506,
				0.2856520414352417,
				-1.721609354019165
			]
		}
	],
	"materials":[
		{
			"doubleSided":true,
			"name":"M_MetalS&F.002",
			"pbrMetallicRoughness":{
				"baseColorFactor":[
					0.800000011920929,
					0.800000011920929,
					0.800000011920929,
					1
				],
				"roughnessFactor":0.05131673812866211
			}
		},
		{
			"doubleSided":true,
			"name":"M_MetalS&F.003",
			"pbrMetallicRoughness":{
				"baseColorFactor":[
					0.800000011920929,
					0.800000011920929,
					0.800000011920929,
					1
				],
				"metallicFactor":0,
				"roughnessFactor":0.4307900071144104
			}
		},
		{
			"doubleSided":true,
			"name":"M_Terrazo.001",
			"pbrMetallicRoughness":{
				"baseColorFactor":[
					0.800000011920929,
					0.800000011920929,
					0.800000011920929,
					1
				],
				"metallicFactor":0,
				"roughnessFactor":0.4307900071144104
			}
		},
		{
			"doubleSided":true,
			"name":"M_Gold.001",
			"pbrMetallicRoughness":{
				"baseColorFactor":[
					0.3095700144767761,
					0.2286670058965683,
					0.11029200255870819,
					1
				],
				"roughnessFactor":0.25124579668045044
			}
		},
		{
			"doubleSided":true,
			"extensions":{
				"KHR_materials_specular":{
					"specularFactor":0.4000000059604645
				},
				"KHR_materials_ior":{
					"ior":1.4500000476837158
				}
			},
			"name":"putih.001",
			"pbrMetallicRoughness":{
				"baseColorFactor":[
					0.48097899556159973,
					0.48097899556159973,
					0.48097899556159973,
					1
				],
				"metallicFactor":0,
				"roughnessFactor":0.05131673812866211
			}
		},
		{
			"alphaMode":"BLEND",
			"doubleSided":true,
			"extensions":{
				"KHR_materials_clearcoat":{
					"clearcoatFactor":0.26923808455467224,
					"clearcoatRoughnessFactor":0.07467223703861237
				}
			},
			"name":"vase1.003",
			"normalTexture":{
				"index":0
			},
			"pbrMetallicRoughness":{
				"baseColorTexture":{
					"index":1
				},
				"metallicRoughnessTexture":{
					"index":2
				}
			}
		},
		{
			"alphaMode":"BLEND",
			"doubleSided":true,
			"emissiveFactor":[
				1,
				1,
				1
			],
			"emissiveTexture":{
				"index":3
			},
			"name":"flower1.003",
			"normalTexture":{
				"index":4
			},
			"pbrMetallicRoughness":{
				"baseColorTexture":{
					"index":5
				},
				"metallicFactor":0,
				"metallicRoughnessTexture":{
					"index":6
				}
			}
		},
		{
			"alphaMode":"BLEND",
			"doubleSided":true,
			"name":"glass.003",
			"normalTexture":{
				"index":7
			},
			"pbrMetallicRoughness":{
				"baseColorTexture":{
					"index":8
				},
				"metallicRoughnessTexture":{
					"index":9
				}
			}
		},
		{
			"doubleSided":true,
			"name":"Material.100",
			"pbrMetallicRoughness":{
				"baseColorFactor":[
					0.4451987147331238,
					0.208637073636055,
					0.06662602722644806,
					1
				],
				"metallicFactor":0,
				"roughnessFactor":0.5
			}
		},
		{
			"doubleSided":true,
			"name":"Material.078",
			"pbrMetallicRoughness":{
				"baseColorFactor":[
					0,
					0,
					0,
					1
				],
				"metallicFactor":0,
				"roughnessFactor":0.5
			}
		},
		{
			"doubleSided":true,
			"name":"Material.076",
			"pbrMetallicRoughness":{
				"baseColorFactor":[
					0.177887424826622,
					0.08021991699934006,
					0.035601355135440826,
					1
				],
				"metallicFactor":0,
				"roughnessFactor":0.5
			}
		}
	],
	"meshes":[
		{
			"name":"s.spoon.002_Plane.275",
			"primitives":[
				{
					"attributes":{
						"POSITION":0,
						"NORMAL":1,
						"TEXCOORD_0":2
					},
					"indices":3,
					"material":0
				},
				{
					"attributes":{
						"POSITION":4,
						"NORMAL":5,
						"TEXCOORD_0":6
					},
					"indices":7,
					"material":1
				},
				{
					"attributes":{
						"POSITION":8,
						"NORMAL":9,
						"TEXCOORD_0":10
					},
					"indices":11,
					"material":2
				},
				{
					"attributes":{
						"POSITION":12,
						"NORMAL":13,
						"TEXCOORD_0":14
					},
					"indices":15,
					"material":3
				},
				{
					"attributes":{
						"POSITION":16,
						"NORMAL":17,
						"TEXCOORD_0":18
					},
					"indices":19,
					"material":4
				},
				{
					"attributes":{
						"POSITION":20,
						"NORMAL":21,
						"TEXCOORD_0":22
					},
					"indices":23,
					"material":5
				},
				{
					"attributes":{
						"POSITION":24,
						"NORMAL":25,
						"TEXCOORD_0":26
					},
					"indices":27,
					"material":6
				},
				{
					"attributes":{
						"POSITION":28,
						"NORMAL":29,
						"TEXCOORD_0":30
					},
					"indices":31,
					"material":7
				},
				{
					"attributes":{
						"POSITION":32,
						"NORMAL":33,
						"TEXCOORD_0":34
					},
					"indices":35,
					"material":8
				},
				{
					"attributes":{
						"POSITION":36,
						"NORMAL":37,
						"TEXCOORD_0":38
					},
					"indices":39,
					"material":9
				},
				{
					"attributes":{
						"POSITION":40,
						"NORMAL":41,
						"TEXCOORD_0":42
					},
					"indices":43,
					"material":10
				}
			]
		}
	],
	"textures":[
		{
			"sampler":0,
			"source":0
		},
		{
			"sampler":0,
			"source":1
		},
		{
			"sampler":0,
			"source":2
		},
		{
			"sampler":0,
			"source":3
		},
		{
			"sampler":0,
			"source":4
		},
		{
			"sampler":0,
			"source":5
		},
		{
			"sampler":0,
			"source":6
		},
		{
			"sampler":0,
			"source":7
		},
		{
			"sampler":0,
			"source":8
		},
		{
			"sampler":0,
			"source":9
		}
	],
	"images":[
		{
			"mimeType":"image/png",
			"name":"Image_6",
			"uri":"Image_6.png"
		},
		{
			"mimeType":"image/png",
			"name":"Image_4",
			"uri":"Image_4.png"
		},
		{
			"mimeType":"image/png",
			"name":"Image_5",
			"uri":"Image_5.png"
		},
		{
			"mimeType":"image/jpeg",
			"name":"Image_9",
			"uri":"Image_9.jpg"
		},
		{
			"mimeType":"image/png",
			"name":"Image_10",
			"uri":"Image_10.png"
		},
		{
			"mimeType":"image/png",
			"name":"Image_7",
			"uri":"Image_7.png"
		},
		{
			"mimeType":"image/png",
			"name":"Image_8",
			"uri":"Image_8.png"
		},
		{
			"mimeType":"image/png",
			"name":"Image_5",
			"uri":"Image_5-1.png"
		},
		{
			"mimeType":"image/png",
			"name":"Image_3",
			"uri":"Image_3.png"
		},
		{
			"mimeType":"image/png",
			"name":"Image_4",
			"uri":"Image_4-1.png"
		}
	],
	"accessors":[
		{
			"bufferView":0,
			"componentType":5126,
			"count":25406,
			"max":[
				0.23489370942115784,
				0.11337944865226746,
				-0.00023048197908792645
			],
			"min":[
				-0.22638143599033356,
				-0.7328620553016663,
				-0.008055527694523335
			],
			"type":"VEC3"
		},
		{
			"bufferView":1,
			"componentType":5126,
			"count":25406,
			"type":"VEC3"
		},
		{
			"bufferView":2,
			"componentType":5126,
			"count":25406,
			"type":"VEC2"
		},
		{
			"bufferView":3,
			"componentType":5123,
			"count":114972,
			"type":"SCALAR"
		},
		{
			"bufferView":4,
			"componentType":5126,
			"count":11338,
			"max":[
				0.22843870520591736,
				0.11233144998550415,
				0.000591518240980804
			],
			"min":[
				-0.21824710071086884,
				-0.7318142652511597,
				-0.0074705746956169605
			],
			"type":"VEC3"
		},
		{
			"bufferView":5,
			"componentType":5126,
			"count":11338,
			"type":"VEC3"
		},
		{
			"bufferView":6,
			"componentType":5126,
			"count":11338,
			"type":"VEC2"
		},
		{
			"bufferView":7,
			"componentType":5123,
			"count":51384,
			"type":"SCALAR"
		},
		{
			"bufferView":8,
			"componentType":5126,
			"count":9146,
			"max":[
				0.16581693291664124,
				0.11766442656517029,
				-0.0008414817275479436
			],
			"min":[
				-0.15747418999671936,
				-0.7328615188598633,
				-0.058267563581466675
			],
			"type":"VEC3"
		},
		{
			"bufferView":9,
			"componentType":5126,
			"count":9146,
			"type":"VEC3"
		},
		{
			"bufferView":10,
			"componentType":5126,
			"count":9146,
			"type":"VEC2"
		},
		{
			"bufferView":11,
			"componentType":5123,
			"count":51456,
			"type":"SCALAR"
		},
		{
			"bufferView":12,
			"componentType":5126,
			"count":7442,
			"max":[
				0.16568195819854736,
				0.11752843856811523,
				-0.02335747517645359
			],
			"min":[
				-0.1573391854763031,
				-0.7327255010604858,
				-0.0588865652680397
			],
			"type":"VEC3"
		},
		{
			"bufferView":13,
			"componentType":5126,
			"count":7442,
			"type":"VEC3"
		},
		{
			"bufferView":14,
			"componentType":5126,
			"count":7442,
			"type":"VEC2"
		},
		{
			"bufferView":15,
			"componentType":5123,
			"count":41472,
			"type":"SCALAR"
		},
		{
			"bufferView":16,
			"componentType":5126,
			"count":7044,
			"max":[
				0.13250501453876495,
				0.06270745396614075,
				-0.004142483696341515
			],
			"min":[
				-0.12452521920204163,
				-0.6776999235153198,
				-0.024691566824913025
			],
			"type":"VEC3"
		},
		{
			"bufferView":17,
			"componentType":5126,
			"count":7044,
			"type":"VEC3"
		},
		{
			"bufferView":18,
			"componentType":5126,
			"count":7044,
			"type":"VEC2"
		},
		{
			"bufferView":19,
			"componentType":5123,
			"count":39936,
			"type":"SCALAR"
		},
		{
			"bufferView":20,
			"componentType":5126,
			"count":1467,
			"max":[
				0.06537753343582153,
				-0.26376113295555115,
				0.0010008178651332855
			],
			"min":[
				-0.034859608858823776,
				-0.36395713686943054,
				-0.18516191840171814
			],
			"type":"VEC3"
		},
		{
			"bufferView":21,
			"componentType":5126,
			"count":1467,
			"type":"VEC3"
		},
		{
			"bufferView":22,
			"componentType":5126,
			"count":1467,
			"type":"VEC2"
		},
		{
			"bufferView":23,
			"componentType":5123,
			"count":6168,
			"type":"SCALAR"
		},
		{
			"bufferView":24,
			"componentType":5126,
			"count":3638,
			"max":[
				0.05862642452120781,
				-0.23558419942855835,
				-0.04124630242586136
			],
			"min":[
				-0.024744946509599686,
				-0.3828701674938202,
				-0.3074987530708313
			],
			"type":"VEC3"
		},
		{
			"bufferView":25,
			"componentType":5126,
			"count":3638,
			"type":"VEC3"
		},
		{
			"bufferView":26,
			"componentType":5126,
			"count":3638,
			"type":"VEC2"
		},
		{
			"bufferView":27,
			"componentType":5123,
			"count":17859,
			"type":"SCALAR"
		},
		{
			"bufferView":28,
			"componentType":5126,
			"count":112,
			"max":[
				0.3372102379798889,
				-0.13805130124092102,
				-0.0019014570862054825
			],
			"min":[
				-0.3699231445789337,
				-0.4956865608692169,
				-0.06452430784702301
			],
			"type":"VEC3"
		},
		{
			"bufferView":29,
			"componentType":5126,
			"count":112,
			"type":"VEC3"
		},
		{
			"bufferView":30,
			"componentType":5126,
			"count":112,
			"type":"VEC2"
		},
		{
			"bufferView":31,
			"componentType":5123,
			"count":168,
			"type":"SCALAR"
		},
		{
			"bufferView":32,
			"componentType":5126,
			"count":20,
			"max":[
				0.49457353353500366,
				0.182087242603302,
				0.025449048727750778
			],
			"min":[
				-0.485409677028656,
				-0.7978957295417786,
				0.00020408723503351212
			],
			"type":"VEC3"
		},
		{
			"bufferView":33,
			"componentType":5126,
			"count":20,
			"type":"VEC3"
		},
		{
			"bufferView":34,
			"componentType":5126,
			"count":20,
			"type":"VEC2"
		},
		{
			"bufferView":35,
			"componentType":5123,
			"count":30,
			"type":"SCALAR"
		},
		{
			"bufferView":36,
			"componentType":5126,
			"count":52,
			"max":[
				0.12538762390613556,
				-0.17603854835033417,
				0.41943952441215515
			],
			"min":[
				-0.13559572398662567,
				-0.4370219111442566,
				0.01452210359275341
			],
			"type":"VEC3"
		},
		{
			"bufferView":37,
			"componentType":5126,
			"count":52,
			"type":"VEC3"
		},
		{
			"bufferView":38,
			"componentType":5126,
			"count":52,
			"type":"VEC2"
		},
		{
			"bufferView":39,
			"componentType":5123,
			"count":78,
			"type":"SCALAR"
		},
		{
			"bufferView":40,
			"componentType":5126,
			"count":472,
			"max":[
				0.834458589553833,
				0.5229331254959106,
				0.41751426458358765
			],
			"min":[
				-0.8303587436676025,
				-1.1418840885162354,
				-0.04998981952667236
			],
			"type":"VEC3"
		},
		{
			"bufferView":41,
			"componentType":5126,
			"count":472,
			"type":"VEC3"
		},
		{
			"bufferView":42,
			"componentType":5126,
			"count":472,
			"type":"VEC2"
		},
		{
			"bufferView":43,
			"componentType":5123,
			"count":720,
			"type":"SCALAR"
		}
	],
	"bufferViews":[
		{
			"buffer":0,
			"byteLength":304872,
			"byteOffset":0,
			"target":34962
		},
		{
			"buffer":0,
			"byteLength":304872,
			"byteOffset":304872,
			"target":34962
		},
		{
			"buffer":0,
			"byteLength":203248,
			"byteOffset":609744,
			"target":34962
		},
		{
			"buffer":0,
			"byteLength":229944,
			"byteOffset":812992,
			"target":34963
		},
		{
			"buffer":0,
			"byteLength":136056,
			"byteOffset":1042936,
			"target":34962
		},
		{
			"buffer":0,
			"byteLength":136056,
			"byteOffset":1178992,
			"target":34962
		},
		{
			"buffer":0,
			"byteLength":90704,
			"byteOffset":1315048,
			"target":34962
		},
		{
			"buffer":0,
			"byteLength":102768,
			"byteOffset":1405752,
			"target":34963
		},
		{
			"buffer":0,
			"byteLength":109752,
			"byteOffset":1508520,
			"target":34962
		},
		{
			"buffer":0,
			"byteLength":109752,
			"byteOffset":1618272,
			"target":34962
		},
		{
			"buffer":0,
			"byteLength":73168,
			"byteOffset":1728024,
			"target":34962
		},
		{
			"buffer":0,
			"byteLength":102912,
			"byteOffset":1801192,
			"target":34963
		},
		{
			"buffer":0,
			"byteLength":89304,
			"byteOffset":1904104,
			"target":34962
		},
		{
			"buffer":0,
			"byteLength":89304,
			"byteOffset":1993408,
			"target":34962
		},
		{
			"buffer":0,
			"byteLength":59536,
			"byteOffset":2082712,
			"target":34962
		},
		{
			"buffer":0,
			"byteLength":82944,
			"byteOffset":2142248,
			"target":34963
		},
		{
			"buffer":0,
			"byteLength":84528,
			"byteOffset":2225192,
			"target":34962
		},
		{
			"buffer":0,
			"byteLength":84528,
			"byteOffset":2309720,
			"target":34962
		},
		{
			"buffer":0,
			"byteLength":56352,
			"byteOffset":2394248,
			"target":34962
		},
		{
			"buffer":0,
			"byteLength":79872,
			"byteOffset":2450600,
			"target":34963
		},
		{
			"buffer":0,
			"byteLength":17604,
			"byteOffset":2530472,
			"target":34962
		},
		{
			"buffer":0,
			"byteLength":17604,
			"byteOffset":2548076,
			"target":34962
		},
		{
			"buffer":0,
			"byteLength":11736,
			"byteOffset":2565680,
			"target":34962
		},
		{
			"buffer":0,
			"byteLength":12336,
			"byteOffset":2577416,
			"target":34963
		},
		{
			"buffer":0,
			"byteLength":43656,
			"byteOffset":2589752,
			"target":34962
		},
		{
			"buffer":0,
			"byteLength":43656,
			"byteOffset":2633408,
			"target":34962
		},
		{
			"buffer":0,
			"byteLength":29104,
			"byteOffset":2677064,
			"target":34962
		},
		{
			"buffer":0,
			"byteLength":35718,
			"byteOffset":2706168,
			"target":34963
		},
		{
			"buffer":0,
			"byteLength":1344,
			"byteOffset":2741888,
			"target":34962
		},
		{
			"buffer":0,
			"byteLength":1344,
			"byteOffset":2743232,
			"target":34962
		},
		{
			"buffer":0,
			"byteLength":896,
			"byteOffset":2744576,
			"target":34962
		},
		{
			"buffer":0,
			"byteLength":336,
			"byteOffset":2745472,
			"target":34963
		},
		{
			"buffer":0,
			"byteLength":240,
			"byteOffset":2745808,
			"target":34962
		},
		{
			"buffer":0,
			"byteLength":240,
			"byteOffset":2746048,
			"target":34962
		},
		{
			"buffer":0,
			"byteLength":160,
			"byteOffset":2746288,
			"target":34962
		},
		{
			"buffer":0,
			"byteLength":60,
			"byteOffset":2746448,
			"target":34963
		},
		{
			"buffer":0,
			"byteLength":624,
			"byteOffset":2746508,
			"target":34962
		},
		{
			"buffer":0,
			"byteLength":624,
			"byteOffset":2747132,
			"target":34962
		},
		{
			"buffer":0,
			"byteLength":416,
			"byteOffset":2747756,
			"target":34962
		},
		{
			"buffer":0,
			"byteLength":156,
			"byteOffset":2748172,
			"target":34963
		},
		{
			"buffer":0,
			"byteLength":5664,
			"byteOffset":2748328,
			"target":34962
		},
		{
			"buffer":0,
			"byteLength":5664,
			"byteOffset":2753992,
			"target":34962
		},
		{
			"buffer":0,
			"byteLength":3776,
			"byteOffset":2759656,
			"target":34962
		},
		{
			"buffer":0,
			"byteLength":1440,
			"byteOffset":2763432,
			"target":34963
		}
	],
	"samplers":[
		{
			"magFilter":9729,
			"minFilter":9987
		}
	],
	"buffers":[
		{
			"byteLength":2764872,
			"uri":"4table.bin"
		}
	]
}
